  0
SECTION
  2
HEADER
  9
$ANGBASE
  50
0.0
  9
$ANGDIR
  70
1
  9
$MEASUREMENT
  70
0
  0
ENDSEC
  0
SECTION
  2
TABLES
  0
TABLE
  2
LTYPE
  70
4
  0
LTYPE
  5
40F
  2
CONTINUOUS
  70
0
  3
Solid line
  72
65
  73
0
  40
0.0
  0
LTYPE
  5
410
  2
DASHDOT
 70
0
  3
Dash Dot ____ _ ____ _
 72
65
 73
4
 40
2.0
 49
1.25
 49
-0.25
 49
0.25
 49
-0.25
  0
LTYPE
  5
411
  2
DASHED
 70
0
  3
Dashed __ __ __ __ __
 72
65
 73
2
 40
0.75
 49
0.5
 49
-0.25
  0
LTYPE
  5
43B
  2
DOTTED
 70
0
  3
Dotted .  .  .  .
 72
65
 73
2
 40
0.2
 49
0.0
 49
-0.2
  0
ENDTAB
  0
TABLE
  2
STYLE
  70
4
  0
STYLE
  2
KICAD
  70
0
  40
0
  41
1
  42
1
  50
0
  71
0
  3
isocp.shx
  0
STYLE
  2
KICADB
  70
0
  40
0
  41
1
  42
1
  50
0
  71
0
  3
isocp.shx
  0
STYLE
  2
KICADI
  70
0
  40
0
  41
1
  42
1
  50
15
  71
0
  3
isocp.shx
  0
STYLE
  2
KICADBI
  70
0
  40
0
  41
1
  42
1
  50
15
  71
0
  3
isocp.shx
  0
ENDTAB
  0
TABLE
  2
LAYER
  70
1
  0
LAYER
  2
BLACK
  70
0
  62
7
  6
CONTINUOUS
  0
ENDTAB
  0
ENDSEC
  0
SECTION
  2
ENTITIES
0
LINE
8
BLACK
6
CONTINUOUS
10
7.707673582677165
20
-2.6289522440944881
11
7.7162910236220474
21
-2.6312612992125985
0
LINE
8
BLACK
6
CONTINUOUS
10
7.7162910236220474
20
-2.6312612992125985
11
7.7243766141732282
21
-2.6350316535433072
0
LINE
8
BLACK
6
CONTINUOUS
10
7.7243766141732282
20
-2.6350316535433072
11
7.7316846456692909
21
-2.6401487795275589
0
LINE
8
BLACK
6
CONTINUOUS
10
7.7316846456692909
20
-2.6401487795275589
11
7.7379930708661417
21
-2.6464572047244093
0
LINE
8
BLACK
6
CONTINUOUS
10
7.7379930708661417
20
-2.6464572047244093
11
7.7431101968503935
21
-2.6537652362204724
0
LINE
8
BLACK
6
CONTINUOUS
10
7.7431101968503935
20
-2.6537652362204724
11
7.7468805511811025
21
-2.6618508267716536
0
LINE
8
BLACK
6
CONTINUOUS
10
7.7468805511811025
20
-2.6618508267716536
11
7.7491896062992121
21
-2.6704682677165352
0
LINE
8
BLACK
6
CONTINUOUS
10
7.7491896062992121
20
-2.6704682677165352
11
7.7499671653543309
21
-2.6793557874015748
0
LINE
8
BLACK
6
CONTINUOUS
10
7.7499671653543309
20
-2.6793557874015748
11
7.7491896062992121
21
-2.6882433070866143
0
LINE
8
BLACK
6
CONTINUOUS
10
7.7491896062992121
20
-2.6882433070866143
11
7.7468805511811025
21
-2.6968607480314959
0
LINE
8
BLACK
6
CONTINUOUS
10
7.7468805511811025
20
-2.6968607480314959
11
7.7431101968503935
21
-2.7049463385826771
0
LINE
8
BLACK
6
CONTINUOUS
10
7.7431101968503935
20
-2.7049463385826771
11
7.7379930708661417
21
-2.7122543700787403
0
LINE
8
BLACK
6
CONTINUOUS
10
7.7379930708661417
20
-2.7122543700787403
11
7.7316846456692909
21
-2.7185627952755906
0
LINE
8
BLACK
6
CONTINUOUS
10
7.7316846456692909
20
-2.7185627952755906
11
7.7243766141732282
21
-2.7236799212598424
0
LINE
8
BLACK
6
CONTINUOUS
10
7.7243766141732282
20
-2.7236799212598424
11
7.7162910236220474
21
-2.727450275590551
0
LINE
8
BLACK
6
CONTINUOUS
10
7.7162910236220474
20
-2.727450275590551
11
7.707673582677165
21
-2.7297593307086614
0
LINE
8
BLACK
6
CONTINUOUS
10
7.707673582677165
20
-2.7297593307086614
11
7.6987860629921254
21
-2.7305368897637794
0
LINE
8
BLACK
6
CONTINUOUS
10
7.6987860629921254
20
-2.7305368897637794
11
7.6898985433070868
21
-2.7297593307086614
0
LINE
8
BLACK
6
CONTINUOUS
10
7.6898985433070868
20
-2.7297593307086614
11
7.6812811023622043
21
-2.727450275590551
0
LINE
8
BLACK
6
CONTINUOUS
10
7.6812811023622043
20
-2.727450275590551
11
7.6731955118110236
21
-2.7236799212598424
0
LINE
8
BLACK
6
CONTINUOUS
10
7.6731955118110236
20
-2.7236799212598424
11
7.6658874803149608
21
-2.7185627952755906
0
LINE
8
BLACK
6
CONTINUOUS
10
7.6658874803149608
20
-2.7185627952755906
11
7.65957905511811
21
-2.7122543700787403
0
LINE
8
BLACK
6
CONTINUOUS
10
7.65957905511811
20
-2.7122543700787403
11
7.6544619291338583
21
-2.7049463385826771
0
LINE
8
BLACK
6
CONTINUOUS
10
7.6544619291338583
20
-2.7049463385826771
11
7.6506915748031492
21
-2.6968607480314959
0
LINE
8
BLACK
6
CONTINUOUS
10
7.6506915748031492
20
-2.6968607480314959
11
7.6483825196850388
21
-2.6882433070866143
0
LINE
8
BLACK
6
CONTINUOUS
10
7.6483825196850388
20
-2.6882433070866143
11
7.6476049606299208
21
-2.6793557874015748
0
LINE
8
BLACK
6
CONTINUOUS
10
7.6476049606299208
20
-2.6793557874015748
11
7.6483825196850388
21
-2.6704682677165352
0
LINE
8
BLACK
6
CONTINUOUS
10
7.6483825196850388
20
-2.6704682677165352
11
7.6506915748031492
21
-2.6618508267716536
0
LINE
8
BLACK
6
CONTINUOUS
10
7.6506915748031492
20
-2.6618508267716536
11
7.6544619291338583
21
-2.6537652362204724
0
LINE
8
BLACK
6
CONTINUOUS
10
7.6544619291338583
20
-2.6537652362204724
11
7.65957905511811
21
-2.6464572047244093
0
LINE
8
BLACK
6
CONTINUOUS
10
7.65957905511811
20
-2.6464572047244093
11
7.6658874803149608
21
-2.6401487795275589
0
LINE
8
BLACK
6
CONTINUOUS
10
7.6658874803149608
20
-2.6401487795275589
11
7.6731955118110236
21
-2.6350316535433072
0
LINE
8
BLACK
6
CONTINUOUS
10
7.6731955118110236
20
-2.6350316535433072
11
7.6812811023622043
21
-2.6312612992125985
0
LINE
8
BLACK
6
CONTINUOUS
10
7.6812811023622043
20
-2.6312612992125985
11
7.6898985433070868
21
-2.6289522440944881
0
LINE
8
BLACK
6
CONTINUOUS
10
7.6898985433070868
20
-2.6289522440944881
11
7.6987860629921254
21
-2.6281746850393701
0
LINE
8
BLACK
6
CONTINUOUS
10
7.6987860629921254
20
-2.6281746850393701
11
7.707673582677165
21
-2.6289522440944881
0
LINE
8
BLACK
6
CONTINUOUS
10
7.6560339763779526
20
-2.6873475196850394
11
7.6582303937007872
21
-2.6950671259842518
0
LINE
8
BLACK
6
CONTINUOUS
10
7.6582303937007872
20
-2.6950671259842518
11
7.6618078740157483
21
-2.7022516929133857
0
LINE
8
BLACK
6
CONTINUOUS
10
7.6618078740157483
20
-2.7022516929133857
11
7.6666446062992124
21
-2.7086565748031495
0
LINE
8
BLACK
6
CONTINUOUS
10
7.6666446062992124
20
-2.7086565748031495
11
7.6725759055118106
21
-2.7140636614173226
0
LINE
8
BLACK
6
CONTINUOUS
10
7.6725759055118106
20
-2.7140636614173226
11
7.679399724409449
21
-2.7182888188976375
0
LINE
8
BLACK
6
CONTINUOUS
10
7.679399724409449
20
-2.7182888188976375
11
7.6868837401574801
21
-2.7211881102362203
0
LINE
8
BLACK
6
CONTINUOUS
10
7.6868837401574801
20
-2.7211881102362203
11
7.6947730708661419
21
-2.7226628740157479
0
LINE
8
BLACK
6
CONTINUOUS
10
7.6947730708661419
20
-2.7226628740157479
11
7.7027990551181098
21
-2.7226628740157479
0
LINE
8
BLACK
6
CONTINUOUS
10
7.7027990551181098
20
-2.7226628740157479
11
7.7106883858267716
21
-2.7211881102362203
0
LINE
8
BLACK
6
CONTINUOUS
10
7.7106883858267716
20
-2.7211881102362203
11
7.7181724015748028
21
-2.7182888188976375
0
LINE
8
BLACK
6
CONTINUOUS
10
7.7181724015748028
20
-2.7182888188976375
11
7.7249962204724412
21
-2.7140636614173226
0
LINE
8
BLACK
6
CONTINUOUS
10
7.7249962204724412
20
-2.7140636614173226
11
7.7309275196850393
21
-2.7086565748031495
0
LINE
8
BLACK
6
CONTINUOUS
10
7.7309275196850393
20
-2.7086565748031495
11
7.7357642519685035
21
-2.7022516929133857
0
LINE
8
BLACK
6
CONTINUOUS
10
7.7357642519685035
20
-2.7022516929133857
11
7.7393417322834646
21
-2.6950671259842518
0
LINE
8
BLACK
6
CONTINUOUS
10
7.7393417322834646
20
-2.6950671259842518
11
7.7415381496062992
21
-2.6873475196850394
0
LINE
8
BLACK
6
CONTINUOUS
10
7.7415381496062992
20
-2.6873475196850394
11
7.7422787007874012
21
-2.6793557874015748
0
LINE
8
BLACK
6
CONTINUOUS
10
7.7422787007874012
20
-2.6793557874015748
11
7.7415381496062992
21
-2.6713640551181101
0
LINE
8
BLACK
6
CONTINUOUS
10
7.7415381496062992
20
-2.6713640551181101
11
7.7393417322834646
21
-2.6636444488188977
0
LINE
8
BLACK
6
CONTINUOUS
10
7.7393417322834646
20
-2.6636444488188977
11
7.7357642519685035
21
-2.6564598818897638
0
LINE
8
BLACK
6
CONTINUOUS
10
7.7357642519685035
20
-2.6564598818897638
11
7.7309275196850393
21
-2.650055
0
LINE
8
BLACK
6
CONTINUOUS
10
7.7309275196850393
20
-2.650055
11
7.7249962204724412
21
-2.6446479133858265
0
LINE
8
BLACK
6
CONTINUOUS
10
7.7249962204724412
20
-2.6446479133858265
11
7.7181724015748028
21
-2.6404227559055116
0
LINE
8
BLACK
6
CONTINUOUS
10
7.7181724015748028
20
-2.6404227559055116
11
7.7106883858267716
21
-2.6375234645669292
0
LINE
8
BLACK
6
CONTINUOUS
10
7.7106883858267716
20
-2.6375234645669292
11
7.7027990551181098
21
-2.6360487007874016
0
LINE
8
BLACK
6
CONTINUOUS
10
7.7027990551181098
20
-2.6360487007874016
11
7.6947730708661419
21
-2.6360487007874016
0
LINE
8
BLACK
6
CONTINUOUS
10
7.6947730708661419
20
-2.6360487007874016
11
7.6868837401574801
21
-2.6375234645669292
0
LINE
8
BLACK
6
CONTINUOUS
10
7.6868837401574801
20
-2.6375234645669292
11
7.679399724409449
21
-2.6404227559055116
0
LINE
8
BLACK
6
CONTINUOUS
10
7.679399724409449
20
-2.6404227559055116
11
7.6725759055118106
21
-2.6446479133858265
0
LINE
8
BLACK
6
CONTINUOUS
10
7.6725759055118106
20
-2.6446479133858265
11
7.6666446062992124
21
-2.650055
0
LINE
8
BLACK
6
CONTINUOUS
10
7.6666446062992124
20
-2.650055
11
7.6618078740157483
21
-2.6564598818897638
0
LINE
8
BLACK
6
CONTINUOUS
10
7.6618078740157483
20
-2.6564598818897638
11
7.6582303937007872
21
-2.6636444488188977
0
LINE
8
BLACK
6
CONTINUOUS
10
7.6582303937007872
20
-2.6636444488188977
11
7.6560339763779526
21
-2.6713640551181101
0
LINE
8
BLACK
6
CONTINUOUS
10
7.6560339763779526
20
-2.6713640551181101
11
7.6552934251968505
21
-2.6793557874015748
0
LINE
8
BLACK
6
CONTINUOUS
10
7.6552934251968505
20
-2.6793557874015748
11
7.6560339763779526
21
-2.6873475196850394
0
LINE
8
BLACK
6
CONTINUOUS
10
5.4353899212598424
20
-2.5098668897637793
11
5.444007362204724
21
-2.5121759448818897
0
LINE
8
BLACK
6
CONTINUOUS
10
5.444007362204724
20
-2.5121759448818897
11
5.4520929527559057
21
-2.5159462992125983
0
LINE
8
BLACK
6
CONTINUOUS
10
5.4520929527559057
20
-2.5159462992125983
11
5.4594009842519684
21
-2.5210634251968504
0
LINE
8
BLACK
6
CONTINUOUS
10
5.4594009842519684
20
-2.5210634251968504
11
5.4657094094488183
21
-2.5273718503937008
0
LINE
8
BLACK
6
CONTINUOUS
10
5.4657094094488183
20
-2.5273718503937008
11
5.470826535433071
21
-2.5346798818897636
0
LINE
8
BLACK
6
CONTINUOUS
10
5.470826535433071
20
-2.5346798818897636
11
5.4745968897637791
21
-2.5427654724409448
0
LINE
8
BLACK
6
CONTINUOUS
10
5.4745968897637791
20
-2.5427654724409448
11
5.4769059448818895
21
-2.5513829133858268
0
LINE
8
BLACK
6
CONTINUOUS
10
5.4769059448818895
20
-2.5513829133858268
11
5.4776835039370075
21
-2.5602704330708659
0
LINE
8
BLACK
6
CONTINUOUS
10
5.4776835039370075
20
-2.5602704330708659
11
5.4769059448818895
21
-2.5691579527559054
0
LINE
8
BLACK
6
CONTINUOUS
10
5.4769059448818895
20
-2.5691579527559054
11
5.4745968897637791
21
-2.5777753937007875
0
LINE
8
BLACK
6
CONTINUOUS
10
5.4745968897637791
20
-2.5777753937007875
11
5.470826535433071
21
-2.5858609842519686
0
LINE
8
BLACK
6
CONTINUOUS
10
5.470826535433071
20
-2.5858609842519686
11
5.4657094094488183
21
-2.5931690157480314
0
LINE
8
BLACK
6
CONTINUOUS
10
5.4657094094488183
20
-2.5931690157480314
11
5.4594009842519684
21
-2.5994774409448818
0
LINE
8
BLACK
6
CONTINUOUS
10
5.4594009842519684
20
-2.5994774409448818
11
5.4520929527559057
21
-2.6045945669291339
0
LINE
8
BLACK
6
CONTINUOUS
10
5.4520929527559057
20
-2.6045945669291339
11
5.444007362204724
21
-2.6083649212598425
0
LINE
8
BLACK
6
CONTINUOUS
10
5.444007362204724
20
-2.6083649212598425
11
5.4353899212598424
21
-2.6106739763779525
0
LINE
8
BLACK
6
CONTINUOUS
10
5.4353899212598424
20
-2.6106739763779525
11
5.4265024015748029
21
-2.611451535433071
0
LINE
8
BLACK
6
CONTINUOUS
10
5.4265024015748029
20
-2.611451535433071
11
5.4176148818897634
21
-2.6106739763779525
0
LINE
8
BLACK
6
CONTINUOUS
10
5.4176148818897634
20
-2.6106739763779525
11
5.4089974409448818
21
-2.6083649212598425
0
LINE
8
BLACK
6
CONTINUOUS
10
5.4089974409448818
20
-2.6083649212598425
11
5.400911850393701
21
-2.6045945669291339
0
LINE
8
BLACK
6
CONTINUOUS
10
5.400911850393701
20
-2.6045945669291339
11
5.3936038188976374
21
-2.5994774409448818
0
LINE
8
BLACK
6
CONTINUOUS
10
5.3936038188976374
20
-2.5994774409448818
11
5.3872953937007875
21
-2.5931690157480314
0
LINE
8
BLACK
6
CONTINUOUS
10
5.3872953937007875
20
-2.5931690157480314
11
5.3821782677165357
21
-2.5858609842519686
0
LINE
8
BLACK
6
CONTINUOUS
10
5.3821782677165357
20
-2.5858609842519686
11
5.3784079133858267
21
-2.5777753937007875
0
LINE
8
BLACK
6
CONTINUOUS
10
5.3784079133858267
20
-2.5777753937007875
11
5.3760988582677163
21
-2.5691579527559054
0
LINE
8
BLACK
6
CONTINUOUS
10
5.3760988582677163
20
-2.5691579527559054
11
5.3753212992125983
21
-2.5602704330708659
0
LINE
8
BLACK
6
CONTINUOUS
10
5.3753212992125983
20
-2.5602704330708659
11
5.3760988582677163
21
-2.5513829133858268
0
LINE
8
BLACK
6
CONTINUOUS
10
5.3760988582677163
20
-2.5513829133858268
11
5.3784079133858267
21
-2.5427654724409448
0
LINE
8
BLACK
6
CONTINUOUS
10
5.3784079133858267
20
-2.5427654724409448
11
5.3821782677165357
21
-2.5346798818897636
0
LINE
8
BLACK
6
CONTINUOUS
10
5.3821782677165357
20
-2.5346798818897636
11
5.3872953937007875
21
-2.5273718503937008
0
LINE
8
BLACK
6
CONTINUOUS
10
5.3872953937007875
20
-2.5273718503937008
11
5.3936038188976374
21
-2.5210634251968504
0
LINE
8
BLACK
6
CONTINUOUS
10
5.3936038188976374
20
-2.5210634251968504
11
5.400911850393701
21
-2.5159462992125983
0
LINE
8
BLACK
6
CONTINUOUS
10
5.400911850393701
20
-2.5159462992125983
11
5.4089974409448818
21
-2.5121759448818897
0
LINE
8
BLACK
6
CONTINUOUS
10
5.4089974409448818
20
-2.5121759448818897
11
5.4176148818897634
21
-2.5098668897637793
0
LINE
8
BLACK
6
CONTINUOUS
10
5.4176148818897634
20
-2.5098668897637793
11
5.4265024015748029
21
-2.5090893307086612
0
LINE
8
BLACK
6
CONTINUOUS
10
5.4265024015748029
20
-2.5090893307086612
11
5.4353899212598424
21
-2.5098668897637793
0
LINE
8
BLACK
6
CONTINUOUS
10
5.3837503149606301
20
-2.5682621653543305
11
5.3859467322834647
21
-2.5759817716535434
0
LINE
8
BLACK
6
CONTINUOUS
10
5.3859467322834647
20
-2.5759817716535434
11
5.3895242125984248
21
-2.5831663385826773
0
LINE
8
BLACK
6
CONTINUOUS
10
5.3895242125984248
20
-2.5831663385826773
11
5.3943609448818899
21
-2.589571220472441
0
LINE
8
BLACK
6
CONTINUOUS
10
5.3943609448818899
20
-2.589571220472441
11
5.400292244094488
21
-2.5949783070866141
0
LINE
8
BLACK
6
CONTINUOUS
10
5.400292244094488
20
-2.5949783070866141
11
5.4071160629921255
21
-2.5992034645669291
0
LINE
8
BLACK
6
CONTINUOUS
10
5.4071160629921255
20
-2.5992034645669291
11
5.4146000787401576
21
-2.6021027559055119
0
LINE
8
BLACK
6
CONTINUOUS
10
5.4146000787401576
20
-2.6021027559055119
11
5.4224894094488185
21
-2.6035775196850395
0
LINE
8
BLACK
6
CONTINUOUS
10
5.4224894094488185
20
-2.6035775196850395
11
5.4305153937007873
21
-2.6035775196850395
0
LINE
8
BLACK
6
CONTINUOUS
10
5.4305153937007873
20
-2.6035775196850395
11
5.4384047244094491
21
-2.6021027559055119
0
LINE
8
BLACK
6
CONTINUOUS
10
5.4384047244094491
20
-2.6021027559055119
11
5.4458887401574803
21
-2.5992034645669291
0
LINE
8
BLACK
6
CONTINUOUS
10
5.4458887401574803
20
-2.5992034645669291
11
5.4527125590551178
21
-2.5949783070866141
0
LINE
8
BLACK
6
CONTINUOUS
10
5.4527125590551178
20
-2.5949783070866141
11
5.4586438582677168
21
-2.589571220472441
0
LINE
8
BLACK
6
CONTINUOUS
10
5.4586438582677168
20
-2.589571220472441
11
5.463480590551181
21
-2.5831663385826773
0
LINE
8
BLACK
6
CONTINUOUS
10
5.463480590551181
20
-2.5831663385826773
11
5.467058070866142
21
-2.5759817716535434
0
LINE
8
BLACK
6
CONTINUOUS
10
5.467058070866142
20
-2.5759817716535434
11
5.4692544881889766
21
-2.5682621653543305
0
LINE
8
BLACK
6
CONTINUOUS
10
5.4692544881889766
20
-2.5682621653543305
11
5.4699950393700787
21
-2.5602704330708659
0
LINE
8
BLACK
6
CONTINUOUS
10
5.4699950393700787
20
-2.5602704330708659
11
5.4692544881889766
21
-2.5522787007874017
0
LINE
8
BLACK
6
CONTINUOUS
10
5.4692544881889766
20
-2.5522787007874017
11
5.467058070866142
21
-2.5445590944881888
0
LINE
8
BLACK
6
CONTINUOUS
10
5.467058070866142
20
-2.5445590944881888
11
5.463480590551181
21
-2.5373745275590549
0
LINE
8
BLACK
6
CONTINUOUS
10
5.463480590551181
20
-2.5373745275590549
11
5.4586438582677168
21
-2.5309696456692912
0
LINE
8
BLACK
6
CONTINUOUS
10
5.4586438582677168
20
-2.5309696456692912
11
5.4527125590551178
21
-2.5255625590551181
0
LINE
8
BLACK
6
CONTINUOUS
10
5.4527125590551178
20
-2.5255625590551181
11
5.4458887401574803
21
-2.5213374015748031
0
LINE
8
BLACK
6
CONTINUOUS
10
5.4458887401574803
20
-2.5213374015748031
11
5.4384047244094491
21
-2.5184381102362203
0
LINE
8
BLACK
6
CONTINUOUS
10
5.4384047244094491
20
-2.5184381102362203
11
5.4305153937007873
21
-2.5169633464566927
0
LINE
8
BLACK
6
CONTINUOUS
10
5.4305153937007873
20
-2.5169633464566927
11
5.4224894094488185
21
-2.5169633464566927
0
LINE
8
BLACK
6
CONTINUOUS
10
5.4224894094488185
20
-2.5169633464566927
11
5.4146000787401576
21
-2.5184381102362203
0
LINE
8
BLACK
6
CONTINUOUS
10
5.4146000787401576
20
-2.5184381102362203
11
5.4071160629921255
21
-2.5213374015748031
0
LINE
8
BLACK
6
CONTINUOUS
10
5.4071160629921255
20
-2.5213374015748031
11
5.400292244094488
21
-2.5255625590551181
0
LINE
8
BLACK
6
CONTINUOUS
10
5.400292244094488
20
-2.5255625590551181
11
5.3943609448818899
21
-2.5309696456692912
0
LINE
8
BLACK
6
CONTINUOUS
10
5.3943609448818899
20
-2.5309696456692912
11
5.3895242125984248
21
-2.5373745275590549
0
LINE
8
BLACK
6
CONTINUOUS
10
5.3895242125984248
20
-2.5373745275590549
11
5.3859467322834647
21
-2.5445590944881888
0
LINE
8
BLACK
6
CONTINUOUS
10
5.3859467322834647
20
-2.5445590944881888
11
5.3837503149606301
21
-2.5522787007874017
0
LINE
8
BLACK
6
CONTINUOUS
10
5.3837503149606301
20
-2.5522787007874017
11
5.3830097637795271
21
-2.5602704330708659
0
LINE
8
BLACK
6
CONTINUOUS
10
5.3830097637795271
20
-2.5602704330708659
11
5.3837503149606301
21
-2.5682621653543305
0
LINE
8
BLACK
6
CONTINUOUS
10
6.5392702755905514
20
-1.9791075984251969
11
6.5961061023622047
21
-1.9813229133858268
0
LINE
8
BLACK
6
CONTINUOUS
10
6.5961061023622047
20
-1.9813229133858268
11
6.6528621653543309
21
-1.9850607086614174
0
LINE
8
BLACK
6
CONTINUOUS
10
6.6528621653543309
20
-1.9850607086614174
11
6.7094976377952751
21
-1.9903183070866142
0
LINE
8
BLACK
6
CONTINUOUS
10
6.7094976377952751
20
-1.9903183070866142
11
6.7659718897637795
21
-1.9970918897637795
0
LINE
8
BLACK
6
CONTINUOUS
10
6.7659718897637795
20
-1.9970918897637795
11
6.8222442519685034
21
-2.0053766535433071
0
LINE
8
BLACK
6
CONTINUOUS
10
6.8222442519685034
20
-2.0053766535433071
11
6.8782744094488191
21
-2.0151666535433073
0
LINE
8
BLACK
6
CONTINUOUS
10
6.8782744094488191
20
-2.0151666535433073
11
6.9340220472440945
21
-2.0264547637795274
0
LINE
8
BLACK
6
CONTINUOUS
10
6.9340220472440945
20
-2.0264547637795274
11
6.9894471259842517
21
-2.0392329921259842
0
LINE
8
BLACK
6
CONTINUOUS
10
6.9894471259842517
20
-2.0392329921259842
11
7.0445098031496061
21
-2.053492086614173
0
LINE
8
BLACK
6
CONTINUOUS
10
7.0445098031496061
20
-2.053492086614173
11
7.0991705118110238
21
-2.0692218110236218
0
LINE
8
BLACK
6
CONTINUOUS
10
7.0991705118110238
20
-2.0692218110236218
11
7.1533900393700787
21
-2.0864108661417324
0
LINE
8
BLACK
6
CONTINUOUS
10
7.1533900393700787
20
-2.0864108661417324
11
7.207129409448819
21
-2.1050468897637793
0
LINE
8
BLACK
6
CONTINUOUS
10
7.207129409448819
20
-2.1050468897637793
11
7.2603499999999999
21
-2.125116535433071
0
LINE
8
BLACK
6
CONTINUOUS
10
7.2603499999999999
20
-2.125116535433071
11
7.3130135433070862
21
-2.1466053543307084
0
LINE
8
BLACK
6
CONTINUOUS
10
7.3130135433070862
20
-2.1466053543307084
11
7.3650822834645666
21
-2.1694979133858268
0
LINE
8
BLACK
6
CONTINUOUS
10
7.3650822834645666
20
-2.1694979133858268
11
7.4165187401574801
21
-2.1937777559055118
0
LINE
8
BLACK
6
CONTINUOUS
10
7.4165187401574801
20
-2.1937777559055118
11
7.4672859842519683
21
-2.219427440944882
0
LINE
8
BLACK
6
CONTINUOUS
10
7.4672859842519683
20
-2.219427440944882
11
7.5173475590551178
21
-2.2464285433070867
0
LINE
8
BLACK
6
CONTINUOUS
10
7.5173475590551178
20
-2.2464285433070867
11
7.5666674409448813
21
-2.2747616929133856
0
LINE
8
BLACK
6
CONTINUOUS
10
7.5666674409448813
20
-2.2747616929133856
11
7.6152102755905506
21
-2.3044064960629922
0
LINE
8
BLACK
6
CONTINUOUS
10
7.6152102755905506
20
-2.3044064960629922
11
7.6629411417322837
21
-2.3353416535433071
0
LINE
8
BLACK
6
CONTINUOUS
10
7.6629411417322837
20
-2.3353416535433071
11
7.7098257480314958
21
-2.367544960629921
0
LINE
8
BLACK
6
CONTINUOUS
10
7.7098257480314958
20
-2.367544960629921
11
7.7558304330708658
21
-2.4009933070866141
0
LINE
8
BLACK
6
CONTINUOUS
10
7.7558304330708658
20
-2.4009933070866141
11
7.7558303937007871
21
-2.4009933858267716
0
LINE
8
BLACK
6
CONTINUOUS
10
7.7558303937007871
20
-2.4009933858267716
11
7.7558304330708658
21
-2.4009934645669291
0
LINE
8
BLACK
6
CONTINUOUS
10
7.7558304330708658
20
-2.4009934645669291
11
7.7558306299212596
21
-2.4009935433070866
0
LINE
8
BLACK
6
CONTINUOUS
10
7.7558306299212596
20
-2.4009935433070866
11
7.7558305511811021
21
-2.4009935826771653
0
LINE
8
BLACK
6
CONTINUOUS
10
7.7558305511811021
20
-2.4009935826771653
11
7.7558308267716534
21
-2.4009939370078741
0
LINE
8
BLACK
6
CONTINUOUS
10
7.7558308267716534
20
-2.4009939370078741
11
7.7580103543307084
21
-2.402629094488189
0
LINE
8
BLACK
6
CONTINUOUS
10
7.7580103543307084
20
-2.402629094488189
11
7.7630035826771655
21
-2.4048138188976376
0
LINE
8
BLACK
6
CONTINUOUS
10
7.7630035826771655
20
-2.4048138188976376
11
7.7683630708661413
21
-2.4058042519685037
0
LINE
8
BLACK
6
CONTINUOUS
10
7.7683630708661413
20
-2.4058042519685037
11
7.7738073228346458
21
-2.4055484645669289
0
LINE
8
BLACK
6
CONTINUOUS
10
7.7738073228346458
20
-2.4055484645669289
11
7.7790503149606298
21
-2.4040598031496061
0
LINE
8
BLACK
6
CONTINUOUS
10
7.7790503149606298
20
-2.4040598031496061
11
7.7838166929133861
21
-2.4014164960629922
0
LINE
8
BLACK
6
CONTINUOUS
10
7.7838166929133861
20
-2.4014164960629922
11
7.7858335826771654
21
-2.399583897637795
0
LINE
8
BLACK
6
CONTINUOUS
10
7.7858335826771654
20
-2.399583897637795
11
7.7858336220472442
21
-2.3995839370078738
0
LINE
8
BLACK
6
CONTINUOUS
10
7.7858336220472442
20
-2.3995839370078738
11
7.7858337007874017
21
-2.3995838582677167
0
LINE
8
BLACK
6
CONTINUOUS
10
7.7858337007874017
20
-2.3995838582677167
11
7.7858338188976379
21
-2.3995837401574804
0
LINE
8
BLACK
6
CONTINUOUS
10
7.7858338188976379
20
-2.3995837401574804
11
7.7858338188976379
21
-2.3995837795275592
0
LINE
8
BLACK
6
CONTINUOUS
10
7.7858338188976379
20
-2.3995837795275592
11
7.7919068503937003
21
-2.3949869291338581
0
LINE
8
BLACK
6
CONTINUOUS
10
7.7919068503937003
20
-2.3949869291338581
11
7.7986912992125985
21
-2.3915251574803147
0
LINE
8
BLACK
6
CONTINUOUS
10
7.7986912992125985
20
-2.3915251574803147
11
7.8059773228346456
21
-2.3893055511811023
0
LINE
8
BLACK
6
CONTINUOUS
10
7.8059773228346456
20
-2.3893055511811023
11
7.8135394881889759
21
-2.3883967322834647
0
LINE
8
BLACK
6
CONTINUOUS
10
7.8135394881889759
20
-2.3883967322834647
11
7.8211439370078741
21
-2.3888268897637794
0
LINE
8
BLACK
6
CONTINUOUS
10
7.8211439370078741
20
-2.3888268897637794
11
7.8285553937007872
21
-2.3905826771653542
0
LINE
8
BLACK
6
CONTINUOUS
10
7.8285553937007872
20
-2.3905826771653542
11
7.835544645669291
21
-2.3936097637795277
0
LINE
8
BLACK
6
CONTINUOUS
10
7.835544645669291
20
-2.3936097637795277
11
7.8418928740157474
21
-2.3978128346456691
0
LINE
8
BLACK
6
CONTINUOUS
10
7.8418928740157474
20
-2.3978128346456691
11
7.841895669291338
21
-2.39781405511811
0
LINE
8
BLACK
6
CONTINUOUS
10
7.841895669291338
20
-2.39781405511811
11
7.8503233070866143
21
-2.4045643307086615
0
LINE
8
BLACK
6
CONTINUOUS
10
7.8503233070866143
20
-2.4045643307086615
11
7.8587174015748031
21
-2.4113563385826771
0
LINE
8
BLACK
6
CONTINUOUS
10
7.8587174015748031
20
-2.4113563385826771
11
7.8670776771653541
21
-2.4181898425196851
0
LINE
8
BLACK
6
CONTINUOUS
10
7.8670776771653541
20
-2.4181898425196851
11
7.8670777559055116
21
-2.4181898818897638
0
LINE
8
BLACK
6
CONTINUOUS
10
7.8670777559055116
20
-2.4181898818897638
11
7.8670784251968504
21
-2.41818905511811
0
LINE
8
BLACK
6
CONTINUOUS
10
7.8670784251968504
20
-2.41818905511811
11
7.8695142125984248
21
-2.4201941338582675
0
LINE
8
BLACK
6
CONTINUOUS
10
7.8695142125984248
20
-2.4201941338582675
11
7.8750205905511805
21
-2.4232752755905511
0
LINE
8
BLACK
6
CONTINUOUS
10
7.8750205905511805
20
-2.4232752755905511
11
7.8809846850393699
21
-2.4253351181102363
0
LINE
8
BLACK
6
CONTINUOUS
10
7.8809846850393699
20
-2.4253351181102363
11
7.887218897637795
21
-2.4263089763779528
0
LINE
8
BLACK
6
CONTINUOUS
10
7.887218897637795
20
-2.4263089763779528
11
7.8935270866141733
21
-2.4261661417322835
0
LINE
8
BLACK
6
CONTINUOUS
10
7.8935270866141733
20
-2.4261661417322835
11
7.8997108267716536
21
-2.4249111417322835
0
LINE
8
BLACK
6
CONTINUOUS
10
7.8997108267716536
20
-2.4249111417322835
11
7.9055755905511811
21
-2.4225834251968505
0
LINE
8
BLACK
6
CONTINUOUS
10
7.9055755905511811
20
-2.4225834251968505
11
7.9109368897637795
21
-2.419256220472441
0
LINE
8
BLACK
6
CONTINUOUS
10
7.9109368897637795
20
-2.419256220472441
11
7.913279409448819
21
-2.4171429527559054
0
LINE
8
BLACK
6
CONTINUOUS
10
7.913279409448819
20
-2.4171429527559054
11
7.9135381496062989
21
-2.4170111023622045
0
LINE
8
BLACK
6
CONTINUOUS
10
7.9135381496062989
20
-2.4170111023622045
11
8.0400032283464569
21
-2.303040275590551
0
LINE
8
BLACK
6
CONTINUOUS
10
8.0400032283464569
20
-2.303040275590551
11
8.0406244094488191
21
-2.3025827165354329
0
LINE
8
BLACK
6
CONTINUOUS
10
8.0406244094488191
20
-2.3025827165354329
11
8.0406246062992128
21
-2.3025825590551179
0
LINE
8
BLACK
6
CONTINUOUS
10
8.0406246062992128
20
-2.3025825590551179
11
8.0420726771653541
21
-2.3020698031496063
0
LINE
8
BLACK
6
CONTINUOUS
10
8.0420726771653541
20
-2.3020698031496063
11
8.0436067322834646
21
-2.3021501968503935
0
LINE
8
BLACK
6
CONTINUOUS
10
8.0436067322834646
20
-2.3021501968503935
11
8.0445132283464567
21
-2.3025825590551179
0
LINE
8
BLACK
6
CONTINUOUS
10
8.0445132283464567
20
-2.3025825590551179
11
8.0449932283464562
21
-2.3028114960629922
0
LINE
8
BLACK
6
CONTINUOUS
10
8.0449932283464562
20
-2.3028114960629922
11
8.2378725984251968
21
-2.5169127559055116
0
LINE
8
BLACK
6
CONTINUOUS
10
8.2378725984251968
20
-2.5169127559055116
11
8.2383301181102357
21
-2.5175339370078738
0
LINE
8
BLACK
6
CONTINUOUS
10
8.2383301181102357
20
-2.5175339370078738
11
8.2383303149606295
21
-2.5175341338582675
0
LINE
8
BLACK
6
CONTINUOUS
10
8.2383303149606295
20
-2.5175341338582675
11
8.2385355511811014
21
-2.518113779527559
0
LINE
8
BLACK
6
CONTINUOUS
10
8.2385355511811014
20
-2.518113779527559
11
8.2388430708661424
21
-2.5189822047244093
0
LINE
8
BLACK
6
CONTINUOUS
10
8.2388430708661424
20
-2.5189822047244093
11
8.2387752362204729
21
-2.520276968503937
0
LINE
8
BLACK
6
CONTINUOUS
10
8.2387752362204729
20
-2.520276968503937
11
8.2387626771653544
21
-2.5205162204724409
0
LINE
8
BLACK
6
CONTINUOUS
10
8.2387626771653544
20
-2.5205162204724409
11
8.2381013779527557
21
-2.5219027559055118
0
LINE
8
BLACK
6
CONTINUOUS
10
8.2381013779527557
20
-2.5219027559055118
11
8.0678839763779528
21
-2.6752688582677164
0
LINE
8
BLACK
6
CONTINUOUS
10
8.0678839763779528
20
-2.6752688582677164
11
8.0672625984251969
21
-2.6757265748031496
0
LINE
8
BLACK
6
CONTINUOUS
10
8.0672625984251969
20
-2.6757265748031496
11
8.0663638188976368
21
-2.676044803149606
0
LINE
8
BLACK
6
CONTINUOUS
10
8.0663638188976368
20
-2.676044803149606
11
8.0660752755905509
21
-2.6761925196850394
0
LINE
8
BLACK
6
CONTINUOUS
10
8.0660752755905509
20
-2.6761925196850394
11
8.0659627559055114
21
-2.676186811023622
0
LINE
8
BLACK
6
CONTINUOUS
10
8.0659627559055114
20
-2.676186811023622
11
8.0658145275590556
21
-2.6762393307086612
0
LINE
8
BLACK
6
CONTINUOUS
10
8.0658145275590556
20
-2.6762393307086612
11
8.0642805118110239
21
-2.676158937007874
0
LINE
8
BLACK
6
CONTINUOUS
10
8.0642805118110239
20
-2.676158937007874
11
8.0641464960629925
21
-2.6760950000000001
0
LINE
8
BLACK
6
CONTINUOUS
10
8.0641464960629925
20
-2.6760950000000001
11
8.0640399212598428
21
-2.6760896456692911
0
LINE
8
BLACK
6
CONTINUOUS
10
8.0640399212598428
20
-2.6760896456692911
11
8.0637722834645675
21
-2.6759165354330707
0
LINE
8
BLACK
6
CONTINUOUS
10
8.0637722834645675
20
-2.6759165354330707
11
8.0628939763779517
21
-2.6754976377952757
0
LINE
8
BLACK
6
CONTINUOUS
10
8.0628939763779517
20
-2.6754976377952757
11
8.0625723228346455
21
-2.6751403937007874
0
LINE
8
BLACK
6
CONTINUOUS
10
8.0625723228346455
20
-2.6751403937007874
11
8.0623287007874023
21
-2.6749828346456694
0
LINE
8
BLACK
6
CONTINUOUS
10
8.0623287007874023
20
-2.6749828346456694
11
8.0623286614173235
21
-2.6749828740157482
0
LINE
8
BLACK
6
CONTINUOUS
10
8.0623286614173235
20
-2.6749828740157482
11
8.0488105905511809
21
-2.6600250000000001
0
LINE
8
BLACK
6
CONTINUOUS
10
8.0488105905511809
20
-2.6600250000000001
11
8.0212117716535438
21
-2.630627598425197
0
LINE
8
BLACK
6
CONTINUOUS
10
8.0212117716535438
20
-2.630627598425197
11
7.9930603937007874
21
-2.601758897637795
0
LINE
8
BLACK
6
CONTINUOUS
10
7.9930603937007874
20
-2.601758897637795
11
7.9643665748031491
21
-2.5734292519685038
0
LINE
8
BLACK
6
CONTINUOUS
10
7.9643665748031491
20
-2.5734292519685038
11
7.9523394488188979
21
-2.5619971653543305
0
LINE
8
BLACK
6
CONTINUOUS
10
7.9523394488188979
20
-2.5619971653543305
11
7.7579548425196849
21
-2.7371218897637797
0
LINE
8
BLACK
6
CONTINUOUS
10
7.7579548425196849
20
-2.7371218897637797
11
7.7577398425196851
21
-2.7372802362204722
0
LINE
8
BLACK
6
CONTINUOUS
10
7.7577398425196851
20
-2.7372802362204722
11
7.7567277559055112
21
-2.7383327559055117
0
LINE
8
BLACK
6
CONTINUOUS
10
7.7567277559055112
20
-2.7383327559055117
11
7.7567275984251971
21
-2.7383328346456692
0
LINE
8
BLACK
6
CONTINUOUS
10
7.7567275984251971
20
-2.7383328346456692
11
7.7567275984251971
21
-2.7383329133858267
0
LINE
8
BLACK
6
CONTINUOUS
10
7.7567275984251971
20
-2.7383329133858267
11
7.7567275590551183
21
-2.738332874015748
0
LINE
8
BLACK
6
CONTINUOUS
10
7.7567275590551183
20
-2.738332874015748
11
7.7567267716535433
21
-2.7383335433070863
0
LINE
8
BLACK
6
CONTINUOUS
10
7.7567267716535433
20
-2.7383335433070863
11
7.7482722440944878
21
-2.7455871259842519
0
LINE
8
BLACK
6
CONTINUOUS
10
7.7482722440944878
20
-2.7455871259842519
11
7.7389183858267714
21
-2.7516387401574804
0
LINE
8
BLACK
6
CONTINUOUS
10
7.7389183858267714
20
-2.7516387401574804
11
7.728835826771653
21
-2.7563778740157479
0
LINE
8
BLACK
6
CONTINUOUS
10
7.728835826771653
20
-2.7563778740157479
11
7.7182076771653545
21
-2.7597184251968505
0
LINE
8
BLACK
6
CONTINUOUS
10
7.7182076771653545
20
-2.7597184251968505
11
7.7072268897637795
21
-2.7615997637795275
0
LINE
8
BLACK
6
CONTINUOUS
10
7.7072268897637795
20
-2.7615997637795275
11
7.6960928740157479
21
-2.7619876771653544
0
LINE
8
BLACK
6
CONTINUOUS
10
7.6960928740157479
20
-2.7619876771653544
11
7.6850077559055112
21
-2.7608752362204725
0
LINE
8
BLACK
6
CONTINUOUS
10
7.6850077559055112
20
-2.7608752362204725
11
7.6741728740157482
21
-2.7582825196850393
0
LINE
8
BLACK
6
CONTINUOUS
10
7.6741728740157482
20
-2.7582825196850393
11
7.6637849212598423
21
-2.7542566535433068
0
LINE
8
BLACK
6
CONTINUOUS
10
7.6637849212598423
20
-2.7542566535433068
11
7.6540325590551177
21
-2.7488707874015748
0
LINE
8
BLACK
6
CONTINUOUS
10
7.6540325590551177
20
-2.7488707874015748
11
7.6450927952755903
21
-2.7422226377952756
0
LINE
8
BLACK
6
CONTINUOUS
10
7.6450927952755903
20
-2.7422226377952756
11
7.6371280314960632
21
-2.7344329527559053
0
LINE
8
BLACK
6
CONTINUOUS
10
7.6371280314960632
20
-2.7344329527559053
11
7.6302828346456693
21
-2.7256431496062992
0
LINE
8
BLACK
6
CONTINUOUS
10
7.6302828346456693
20
-2.7256431496062992
11
7.6246814960629923
21
-2.7160128740157479
0
LINE
8
BLACK
6
CONTINUOUS
10
7.6246814960629923
20
-2.7160128740157479
11
7.6204257874015751
21
-2.7057169685039368
0
LINE
8
BLACK
6
CONTINUOUS
10
7.6204257874015751
20
-2.7057169685039368
11
7.6175929133858267
21
-2.6949424015748029
0
LINE
8
BLACK
6
CONTINUOUS
10
7.6175929133858267
20
-2.6949424015748029
11
7.6162343307086608
21
-2.6838847637795276
0
LINE
8
BLACK
6
CONTINUOUS
10
7.6162343307086608
20
-2.6838847637795276
11
7.6163747244094484
21
-2.6727448818897637
0
LINE
8
BLACK
6
CONTINUOUS
10
7.6163747244094484
20
-2.6727448818897637
11
7.6180115354330704
21
-2.6617250000000001
0
LINE
8
BLACK
6
CONTINUOUS
10
7.6180115354330704
20
-2.6617250000000001
11
7.6211150393700784
21
-2.6510251968503935
0
LINE
8
BLACK
6
CONTINUOUS
10
7.6211150393700784
20
-2.6510251968503935
11
7.6256288976377951
21
-2.6408398425196848
0
LINE
8
BLACK
6
CONTINUOUS
10
7.6256288976377951
20
-2.6408398425196848
11
7.6314711417322831
21
-2.6313537795275588
0
LINE
8
BLACK
6
CONTINUOUS
10
7.6314711417322831
20
-2.6313537795275588
11
7.6314710236220469
21
-2.6313537007874017
0
LINE
8
BLACK
6
CONTINUOUS
10
7.6314710236220469
20
-2.6313537007874017
11
7.6316933070866142
21
-2.6311703937007875
0
LINE
8
BLACK
6
CONTINUOUS
10
7.6316933070866142
20
-2.6311703937007875
11
7.6730935039370074
21
-2.5729851574803151
0
LINE
8
BLACK
6
CONTINUOUS
10
7.6730935039370074
20
-2.5729851574803151
11
7.6731025984251966
21
-2.57297468503937
0
LINE
8
BLACK
6
CONTINUOUS
10
7.6731025984251966
20
-2.57297468503937
11
7.6746852362204718
21
-2.5707598818897637
0
LINE
8
BLACK
6
CONTINUOUS
10
7.6746852362204718
20
-2.5707598818897637
11
7.6767596850393698
21
-2.5656956692913386
0
LINE
8
BLACK
6
CONTINUOUS
10
7.6767596850393698
20
-2.5656956692913386
11
7.6776217716535431
21
-2.5602913779527556
0
LINE
8
BLACK
6
CONTINUOUS
10
7.6776217716535431
20
-2.5602913779527556
11
7.6772258267716538
21
-2.5548330708661418
0
LINE
8
BLACK
6
CONTINUOUS
10
7.6772258267716538
20
-2.5548330708661418
11
7.675592834645669
21
-2.5496097637795274
0
LINE
8
BLACK
6
CONTINUOUS
10
7.675592834645669
20
-2.5496097637795274
11
7.6728092519685038
21
-2.5448979133858267
0
LINE
8
BLACK
6
CONTINUOUS
10
7.6728092519685038
20
-2.5448979133858267
11
7.6690224015748027
21
-2.5409470078740157
0
LINE
8
BLACK
6
CONTINUOUS
10
7.6690224015748027
20
-2.5409470078740157
11
7.6667260236220471
21
-2.53945905511811
0
LINE
8
BLACK
6
CONTINUOUS
10
7.6667260236220471
20
-2.53945905511811
11
7.6665311023622049
21
-2.539242559055118
0
LINE
8
BLACK
6
CONTINUOUS
10
7.6665311023622049
20
-2.539242559055118
11
7.4130800787401574
21
-2.37473937007874
0
LINE
8
BLACK
6
CONTINUOUS
10
7.4130800787401574
20
-2.37473937007874
11
7.3923322047244096
21
-2.3635790157480314
0
LINE
8
BLACK
6
CONTINUOUS
10
7.3923322047244096
20
-2.3635790157480314
11
7.3500151968503937
21
-2.3421221653543305
0
LINE
8
BLACK
6
CONTINUOUS
10
7.3500151968503937
20
-2.3421221653543305
11
7.3071911023622045
21
-2.3216961417322834
0
LINE
8
BLACK
6
CONTINUOUS
10
7.3071911023622045
20
-2.3216961417322834
11
7.2638850393700789
21
-2.3023129921259842
0
LINE
8
BLACK
6
CONTINUOUS
10
7.2638850393700789
20
-2.3023129921259842
11
7.2420035039370081
21
-2.2931489763779527
0
LINE
8
BLACK
6
CONTINUOUS
10
7.2420035039370081
20
-2.2931489763779527
11
7.2418582677165348
21
-2.2930366141732281
0
LINE
8
BLACK
6
CONTINUOUS
10
7.2418582677165348
20
-2.2930366141732281
11
6.9348121653543302
21
-2.1933505118110235
0
LINE
8
BLACK
6
CONTINUOUS
10
6.9348121653543302
20
-2.1933505118110235
11
6.9118787007874012
21
-2.1879394488188977
0
LINE
8
BLACK
6
CONTINUOUS
10
6.9118787007874012
20
-2.1879394488188977
11
6.8654501968503938
21
-2.1781661023622045
0
LINE
8
BLACK
6
CONTINUOUS
10
6.8654501968503938
20
-2.1781661023622045
11
6.8187987007874016
21
-2.1695197244094486
0
LINE
8
BLACK
6
CONTINUOUS
10
6.8187987007874016
20
-2.1695197244094486
11
6.7719514960629921
21
-2.1620053543307085
0
LINE
8
BLACK
6
CONTINUOUS
10
6.7719514960629921
20
-2.1620053543307085
11
6.7484437401574802
21
-2.1588168897637794
0
LINE
8
BLACK
6
CONTINUOUS
10
6.7484437401574802
20
-2.1588168897637794
11
6.7484437401574802
21
-2.1588168503937006
0
LINE
8
BLACK
6
CONTINUOUS
10
6.7484437401574802
20
-2.1588168503937006
11
6.7482744881889758
21
-2.1587459448818898
0
LINE
8
BLACK
6
CONTINUOUS
10
6.7482744881889758
20
-2.1587459448818898
11
6.4258879527559056
21
-2.1419257874015747
0
LINE
8
BLACK
6
CONTINUOUS
10
6.4258879527559056
20
-2.1419257874015747
11
6.4023375196850392
21
-2.1426346456692911
0
LINE
8
BLACK
6
CONTINUOUS
10
6.4023375196850392
20
-2.1426346456692911
11
6.3549614960629919
21
-2.1452109448818897
0
LINE
8
BLACK
6
CONTINUOUS
10
6.3549614960629919
20
-2.1452109448818897
11
6.3076617322834645
21
-2.1489335039370077
0
LINE
8
BLACK
6
CONTINUOUS
10
6.3076617322834645
20
-2.1489335039370077
11
6.2604659842519688
21
-2.1538001574803149
0
LINE
8
BLACK
6
CONTINUOUS
10
6.2604659842519688
20
-2.1538001574803149
11
6.2369340157480311
21
-2.1568046062992123
0
LINE
8
BLACK
6
CONTINUOUS
10
6.2369340157480311
20
-2.1568046062992123
11
6.2367521653543303
21
-2.1567799212598424
0
LINE
8
BLACK
6
CONTINUOUS
10
6.2367521653543303
20
-2.1567799212598424
11
5.9209959448818896
21
-2.2239729527559056
0
LINE
8
BLACK
6
CONTINUOUS
10
5.9209959448818896
20
-2.2239729527559056
11
5.8984330708661412
21
-2.2307536614173227
0
LINE
8
BLACK
6
CONTINUOUS
10
5.8984330708661412
20
-2.2307536614173227
11
5.8533381889763776
21
-2.24550405511811
0
LINE
8
BLACK
6
CONTINUOUS
10
5.8533381889763776
20
-2.24550405511811
11
5.8086136220472442
21
-2.2613418897637794
0
LINE
8
BLACK
6
CONTINUOUS
10
5.8086136220472442
20
-2.2613418897637794
11
5.7642855905511814
21
-2.2782578346456694
0
LINE
8
BLACK
6
CONTINUOUS
10
5.7642855905511814
20
-2.2782578346456694
11
5.7423326771653542
21
-2.2872494488188977
0
LINE
8
BLACK
6
CONTINUOUS
10
5.7423326771653542
20
-2.2872494488188977
11
5.7421506299212597
21
-2.2872726771653542
0
LINE
8
BLACK
6
CONTINUOUS
10
5.7421506299212597
20
-2.2872726771653542
11
5.4730098425196845
21
-2.4244913779527559
0
LINE
8
BLACK
6
CONTINUOUS
10
5.4730098425196845
20
-2.4244913779527559
11
5.4730092519685041
21
-2.4244915748031497
0
LINE
8
BLACK
6
CONTINUOUS
10
5.4730092519685041
20
-2.4244915748031497
11
5.4730091732283466
21
-2.424491692913386
0
LINE
8
BLACK
6
CONTINUOUS
10
5.4730091732283466
20
-2.424491692913386
11
5.4730106299212595
21
-2.4244946062992128
0
LINE
8
BLACK
6
CONTINUOUS
10
5.4730106299212595
20
-2.4244946062992128
11
5.4705712204724408
21
-2.4257337795275591
0
LINE
8
BLACK
6
CONTINUOUS
10
5.4705712204724408
20
-2.4257337795275591
11
5.4663918110236223
21
-2.4292661811023621
0
LINE
8
BLACK
6
CONTINUOUS
10
5.4663918110236223
20
-2.4292661811023621
11
5.4631306692913384
21
-2.4336605118110235
0
LINE
8
BLACK
6
CONTINUOUS
10
5.4631306692913384
20
-2.4336605118110235
11
5.4609604724409451
21
-2.4386840157480316
0
LINE
8
BLACK
6
CONTINUOUS
10
5.4609604724409451
20
-2.4386840157480316
11
5.4599961811023618
21
-2.4440705905511813
0
LINE
8
BLACK
6
CONTINUOUS
10
5.4599961811023618
20
-2.4440705905511813
11
5.4602888976377955
21
-2.449535
0
LINE
8
BLACK
6
CONTINUOUS
10
5.4602888976377955
20
-2.449535
11
5.46182311023622
21
-2.4547877559055116
0
LINE
8
BLACK
6
CONTINUOUS
10
5.46182311023622
20
-2.4547877559055116
11
5.4631727952755904
21
-2.4571678346456691
0
LINE
8
BLACK
6
CONTINUOUS
10
5.4631727952755904
20
-2.4571678346456691
11
5.4631727559055117
21
-2.4571678346456691
0
LINE
8
BLACK
6
CONTINUOUS
10
5.4631727559055117
20
-2.4571678346456691
11
5.4632448818897634
21
-2.4574467716535433
0
LINE
8
BLACK
6
CONTINUOUS
10
5.4632448818897634
20
-2.4574467716535433
11
5.4984661023622046
21
-2.5195674803149606
0
LINE
8
BLACK
6
CONTINUOUS
10
5.4984661023622046
20
-2.5195674803149606
11
5.4984661417322833
21
-2.5195675196850393
0
LINE
8
BLACK
6
CONTINUOUS
10
5.4984661417322833
20
-2.5195675196850393
11
5.5032853543307088
21
-2.5296122834645667
0
LINE
8
BLACK
6
CONTINUOUS
10
5.5032853543307088
20
-2.5296122834645667
11
5.50671031496063
21
-2.540213779527559
0
LINE
8
BLACK
6
CONTINUOUS
10
5.50671031496063
20
-2.540213779527559
11
5.5086788582677162
21
-2.551179527559055
0
LINE
8
BLACK
6
CONTINUOUS
10
5.5086788582677162
20
-2.551179527559055
11
5.5091551574803148
21
-2.5623103543307084
0
LINE
8
BLACK
6
CONTINUOUS
10
5.5091551574803148
20
-2.5623103543307084
11
5.5081306692913383
21
-2.5734041732283464
0
LINE
8
BLACK
6
CONTINUOUS
10
5.5081306692913383
20
-2.5734041732283464
11
5.5056238976377951
21
-2.584259527559055
0
LINE
8
BLACK
6
CONTINUOUS
10
5.5056238976377951
20
-2.584259527559055
11
5.501680393700787
21
-2.594679251968504
0
LINE
8
BLACK
6
CONTINUOUS
10
5.501680393700787
20
-2.594679251968504
11
5.4963717716535436
21
-2.6044742125984253
0
LINE
8
BLACK
6
CONTINUOUS
10
5.4963717716535436
20
-2.6044742125984253
11
5.4897944881889762
21
-2.6134664960629919
0
LINE
8
BLACK
6
CONTINUOUS
10
5.4897944881889762
20
-2.6134664960629919
11
5.4820678740157476
21
-2.6214928346456694
0
LINE
8
BLACK
6
CONTINUOUS
10
5.4820678740157476
20
-2.6214928346456694
11
5.4733322834645666
21
-2.6284074409448817
0
LINE
8
BLACK
6
CONTINUOUS
10
5.4733322834645666
20
-2.6284074409448817
11
5.4637463779527558
21
-2.6340848425196848
0
LINE
8
BLACK
6
CONTINUOUS
10
5.4637463779527558
20
-2.6340848425196848
11
5.4534841732283468
21
-2.6384218110236222
0
LINE
8
BLACK
6
CONTINUOUS
10
5.4534841732283468
20
-2.6384218110236222
11
5.4427320472440943
21
-2.6413397244094488
0
LINE
8
BLACK
6
CONTINUOUS
10
5.4427320472440943
20
-2.6413397244094488
11
5.4316852362204724
21
-2.6427855118110237
0
LINE
8
BLACK
6
CONTINUOUS
10
5.4316852362204724
20
-2.6427855118110237
11
5.4205443307086609
21
-2.6427329527559054
0
LINE
8
BLACK
6
CONTINUOUS
10
5.4205443307086609
20
-2.6427329527559054
11
5.4095116535433068
21
-2.6411829921259842
0
LINE
8
BLACK
6
CONTINUOUS
10
5.4095116535433068
20
-2.6411829921259842
11
5.3987875590551182
21
-2.638163779527559
0
LINE
8
BLACK
6
CONTINUOUS
10
5.3987875590551182
20
-2.638163779527559
11
5.3885667322834641
21
-2.6337301574803149
0
LINE
8
BLACK
6
CONTINUOUS
10
5.3885667322834641
20
-2.6337301574803149
11
5.3790348031496062
21
-2.6279625984251966
0
LINE
8
BLACK
6
CONTINUOUS
10
5.3790348031496062
20
-2.6279625984251966
11
5.3703648425196846
21
-2.6209658661417321
0
LINE
8
BLACK
6
CONTINUOUS
10
5.3703648425196846
20
-2.6209658661417321
11
5.3627143307086609
21
-2.612866968503937
0
LINE
8
BLACK
6
CONTINUOUS
10
5.3627143307086609
20
-2.612866968503937
11
5.3627133858267717
21
-2.6128677559055116
0
LINE
8
BLACK
6
CONTINUOUS
10
5.3627133858267717
20
-2.6128677559055116
11
5.3625938976377956
21
-2.6126056299212599
0
LINE
8
BLACK
6
CONTINUOUS
10
5.3625938976377956
20
-2.6126056299212599
11
5.3171065354330711
21
-2.5575567716535432
0
LINE
8
BLACK
6
CONTINUOUS
10
5.3171065354330711
20
-2.5575567716535432
11
5.3171063385826773
21
-2.5575564566929132
0
LINE
8
BLACK
6
CONTINUOUS
10
5.3171063385826773
20
-2.5575564566929132
11
5.3171061417322836
21
-2.5575563385826769
0
LINE
8
BLACK
6
CONTINUOUS
10
5.3171061417322836
20
-2.5575563385826769
11
5.3171061811023623
21
-2.5575562598425194
0
LINE
8
BLACK
6
CONTINUOUS
10
5.3171061811023623
20
-2.5575562598425194
11
5.3171039370078743
21
-2.5575529527559056
0
LINE
8
BLACK
6
CONTINUOUS
10
5.3171039370078743
20
-2.5575529527559056
11
5.315368188976378
21
-2.5554427952755905
0
LINE
8
BLACK
6
CONTINUOUS
10
5.315368188976378
20
-2.5554427952755905
11
5.3110139763779527
21
-2.5521275196850395
0
LINE
8
BLACK
6
CONTINUOUS
10
5.3110139763779527
20
-2.5521275196850395
11
5.3060171653543309
21
-2.5498955511811023
0
LINE
8
BLACK
6
CONTINUOUS
10
5.3060171653543309
20
-2.5498955511811023
11
5.3006424015748026
21
-2.5488650393700785
0
LINE
8
BLACK
6
CONTINUOUS
10
5.3006424015748026
20
-2.5488650393700785
11
5.2951744094488191
21
-2.5490905511811022
0
LINE
8
BLACK
6
CONTINUOUS
10
5.2951744094488191
20
-2.5490905511811022
11
5.2899027559055121
21
-2.5505602362204725
0
LINE
8
BLACK
6
CONTINUOUS
10
5.2899027559055121
20
-2.5505602362204725
11
5.2851067322834648
21
-2.5531961417322835
0
LINE
8
BLACK
6
CONTINUOUS
10
5.2851067322834648
20
-2.5531961417322835
11
5.2830754330708656
21
-2.5550295275590549
0
LINE
8
BLACK
6
CONTINUOUS
10
5.2830754330708656
20
-2.5550295275590549
11
5.2830753937007877
21
-2.5550295275590549
0
LINE
8
BLACK
6
CONTINUOUS
10
5.2830753937007877
20
-2.5550295275590549
11
5.2828158267716532
21
-2.5551618110236221
0
LINE
8
BLACK
6
CONTINUOUS
10
5.2828158267716532
20
-2.5551618110236221
11
5.0613672834645671
21
-2.7546564173228347
0
LINE
8
BLACK
6
CONTINUOUS
10
5.0613672834645671
20
-2.7546564173228347
11
5.0607459055118111
21
-2.7551141732283462
0
LINE
8
BLACK
6
CONTINUOUS
10
5.0607459055118111
20
-2.7551141732283462
11
5.059297834645669
21
-2.7556269291338582
0
LINE
8
BLACK
6
CONTINUOUS
10
5.059297834645669
20
-2.7556269291338582
11
5.0577637795275585
21
-2.7555465354330706
0
LINE
8
BLACK
6
CONTINUOUS
10
5.0577637795275585
20
-2.7555465354330706
11
5.0573160236220467
21
-2.7553329527559054
0
LINE
8
BLACK
6
CONTINUOUS
10
5.0573160236220467
20
-2.7553329527559054
11
5.0563772834645668
21
-2.7548852362204723
0
LINE
8
BLACK
6
CONTINUOUS
10
5.0563772834645668
20
-2.7548852362204723
11
5.0563400787401571
21
-2.7548438976377954
0
LINE
8
BLACK
6
CONTINUOUS
10
5.0563400787401571
20
-2.7548438976377954
11
4.9490788976377953
21
-2.6358312992125983
0
LINE
8
BLACK
6
CONTINUOUS
10
4.9490788976377953
20
-2.6358312992125983
11
4.948621141732283
21
-2.6352099212598423
0
LINE
8
BLACK
6
CONTINUOUS
10
4.948621141732283
20
-2.6352099212598423
11
4.9484015748031496
21
-2.6345898818897635
0
LINE
8
BLACK
6
CONTINUOUS
10
4.9484015748031496
20
-2.6345898818897635
11
4.9482250393700786
21
-2.6342990157480313
0
LINE
8
BLACK
6
CONTINUOUS
10
4.9482250393700786
20
-2.6342990157480313
11
4.9482201574803151
21
-2.6340775590551182
0
LINE
8
BLACK
6
CONTINUOUS
10
4.9482201574803151
20
-2.6340775590551182
11
4.9481083858267718
21
-2.6337618503937006
0
LINE
8
BLACK
6
CONTINUOUS
10
4.9481083858267718
20
-2.6337618503937006
11
4.9481822834645666
21
-2.6323511023622048
0
LINE
8
BLACK
6
CONTINUOUS
10
4.9481822834645666
20
-2.6323511023622048
11
4.9481803543307086
21
-2.6322615748031497
0
LINE
8
BLACK
6
CONTINUOUS
10
4.9481803543307086
20
-2.6322615748031497
11
4.9481876771653539
21
-2.632248149606299
0
LINE
8
BLACK
6
CONTINUOUS
10
4.9481876771653539
20
-2.632248149606299
11
4.948188779527559
21
-2.6322278346456693
0
LINE
8
BLACK
6
CONTINUOUS
10
4.948188779527559
20
-2.6322278346456693
11
4.9488500787401577
21
-2.6308412992125985
0
LINE
8
BLACK
6
CONTINUOUS
10
4.9488500787401577
20
-2.6308412992125985
11
4.9490659055118105
21
-2.6306469291338583
0
LINE
8
BLACK
6
CONTINUOUS
10
4.9490659055118105
20
-2.6306469291338583
11
4.9491603937007875
21
-2.6304747244094489
0
LINE
8
BLACK
6
CONTINUOUS
10
4.9491603937007875
20
-2.6304747244094489
11
4.9491604330708663
21
-2.6304747637795276
0
LINE
8
BLACK
6
CONTINUOUS
10
4.9491604330708663
20
-2.6304747637795276
11
4.9774162992125985
21
-2.6015090551181101
0
LINE
8
BLACK
6
CONTINUOUS
10
4.9774162992125985
20
-2.6015090551181101
11
5.0062184251968507
21
-2.5730863779527557
0
LINE
8
BLACK
6
CONTINUOUS
10
5.0062184251968507
20
-2.5730863779527557
11
5.0355562598425196
21
-2.5452170866141732
0
LINE
8
BLACK
6
CONTINUOUS
10
5.0355562598425196
20
-2.5452170866141732
11
5.0625629527559051
21
-2.5205229133858267
0
LINE
8
BLACK
6
CONTINUOUS
10
5.0625629527559051
20
-2.5205229133858267
11
4.9070576377952753
21
-2.3479275196850393
0
LINE
8
BLACK
6
CONTINUOUS
10
4.9070576377952753
20
-2.3479275196850393
11
4.9065998818897638
21
-2.3473061417322834
0
LINE
8
BLACK
6
CONTINUOUS
10
4.9065998818897638
20
-2.3473061417322834
11
4.9060871259842518
21
-2.3458580708661416
0
LINE
8
BLACK
6
CONTINUOUS
10
4.9060871259842518
20
-2.3458580708661416
11
4.9061675196850389
21
-2.3443240551181104
0
LINE
8
BLACK
6
CONTINUOUS
10
4.9061675196850389
20
-2.3443240551181104
11
4.9068288188976377
21
-2.3429375196850395
0
LINE
8
BLACK
6
CONTINUOUS
10
4.9068288188976377
20
-2.3429375196850395
11
5.1209299606299208
21
-2.1500581889763777
0
LINE
8
BLACK
6
CONTINUOUS
10
5.1209299606299208
20
-2.1500581889763777
11
5.1215513385826767
21
-2.1496004330708662
0
LINE
8
BLACK
6
CONTINUOUS
10
5.1215513385826767
20
-2.1496004330708662
11
5.1229993700787402
21
-2.1490876771653542
0
LINE
8
BLACK
6
CONTINUOUS
10
5.1229993700787402
20
-2.1490876771653542
11
5.1229994094488189
21
-2.1490876771653542
0
LINE
8
BLACK
6
CONTINUOUS
10
5.1229994094488189
20
-2.1490876771653542
11
5.1245334251968506
21
-2.1491680708661418
0
LINE
8
BLACK
6
CONTINUOUS
10
5.1245334251968506
20
-2.1491680708661418
11
5.1259199606299211
21
-2.1498293700787401
0
LINE
8
BLACK
6
CONTINUOUS
10
5.1259199606299211
20
-2.1498293700787401
11
5.2405928740157481
21
-2.2770734645669291
0
LINE
8
BLACK
6
CONTINUOUS
10
5.2405928740157481
20
-2.2770734645669291
11
5.2405929133858269
21
-2.2770735433070866
0
LINE
8
BLACK
6
CONTINUOUS
10
5.2405929133858269
20
-2.2770735433070866
11
5.2405929921259844
21
-2.2770735826771653
0
LINE
8
BLACK
6
CONTINUOUS
10
5.2405929921259844
20
-2.2770735826771653
11
5.2405937007874011
21
-2.2770729527559053
0
LINE
8
BLACK
6
CONTINUOUS
10
5.2405937007874011
20
-2.2770729527559053
11
5.2427023622047244
21
-2.2794196456692912
0
LINE
8
BLACK
6
CONTINUOUS
10
5.2427023622047244
20
-2.2794196456692912
11
5.2476863385826773
21
-2.2832893307086612
0
LINE
8
BLACK
6
CONTINUOUS
10
5.2476863385826773
20
-2.2832893307086612
11
5.253275551181102
21
-2.2862175984251967
0
LINE
8
BLACK
6
CONTINUOUS
10
5.253275551181102
20
-2.2862175984251967
11
5.259294173228346
21
-2.2881123228346456
0
LINE
8
BLACK
6
CONTINUOUS
10
5.259294173228346
20
-2.2881123228346456
11
5.265552913385827
21
-2.2889139370078739
0
LINE
8
BLACK
6
CONTINUOUS
10
5.265552913385827
20
-2.2889139370078739
11
5.2718548031496058
21
-2.2885972440944879
0
LINE
8
BLACK
6
CONTINUOUS
10
5.2718548031496058
20
-2.2885972440944879
11
5.2780016141732284
21
-2.2871721259842519
0
LINE
8
BLACK
6
CONTINUOUS
10
5.2780016141732284
20
-2.2871721259842519
11
5.2837999212598428
21
-2.2846834251968504
0
LINE
8
BLACK
6
CONTINUOUS
10
5.2837999212598428
20
-2.2846834251968504
11
5.2864319685039369
21
-2.2829439370078739
0
LINE
8
BLACK
6
CONTINUOUS
10
5.2864319685039369
20
-2.2829439370078739
11
5.2864320078740157
21
-2.2829438976377951
0
LINE
8
BLACK
6
CONTINUOUS
10
5.2864320078740157
20
-2.2829438976377951
11
5.2864320472440944
21
-2.2829438976377951
0
LINE
8
BLACK
6
CONTINUOUS
10
5.2864320472440944
20
-2.2829438976377951
11
5.2864320866141732
21
-2.2829438976377951
0
LINE
8
BLACK
6
CONTINUOUS
10
5.2864320866141732
20
-2.2829438976377951
11
5.2954608267716532
21
-2.2770217322834645
0
LINE
8
BLACK
6
CONTINUOUS
10
5.2954608267716532
20
-2.2770217322834645
11
5.3045188582677163
21
-2.2711444094488189
0
LINE
8
BLACK
6
CONTINUOUS
10
5.3045188582677163
20
-2.2711444094488189
11
5.3136055905511812
21
-2.2653122047244092
0
LINE
8
BLACK
6
CONTINUOUS
10
5.3136055905511812
20
-2.2653122047244092
11
5.3136057086614175
21
-2.2653121259842521
0
LINE
8
BLACK
6
CONTINUOUS
10
5.3136057086614175
20
-2.2653121259842521
11
5.3136058661417325
21
-2.2653120078740159
0
LINE
8
BLACK
6
CONTINUOUS
10
5.3136058661417325
20
-2.2653120078740159
11
5.3136060236220475
21
-2.2653119291338584
0
LINE
8
BLACK
6
CONTINUOUS
10
5.3136060236220475
20
-2.2653119291338584
11
5.3203613385826767
21
-2.2617939370078739
0
LINE
8
BLACK
6
CONTINUOUS
10
5.3203613385826767
20
-2.2617939370078739
11
5.3276288582677163
21
-2.2595137795275591
0
LINE
8
BLACK
6
CONTINUOUS
10
5.3276288582677163
20
-2.2595137795275591
11
5.3351834645669287
21
-2.258542086614173
0
LINE
8
BLACK
6
CONTINUOUS
10
5.3351834645669287
20
-2.258542086614173
11
5.3427914566929129
21
-2.2589089763779526
0
LINE
8
BLACK
6
CONTINUOUS
10
5.3427914566929129
20
-2.2589089763779526
11
5.3502175196850397
21
-2.2606031102362203
0
LINE
8
BLACK
6
CONTINUOUS
10
5.3502175196850397
20
-2.2606031102362203
11
5.3572318897637796
21
-2.2635720472440943
0
LINE
8
BLACK
6
CONTINUOUS
10
5.3572318897637796
20
-2.2635720472440943
11
5.3636176377952758
21
-2.2677239763779529
0
LINE
8
BLACK
6
CONTINUOUS
10
5.3636176377952758
20
-2.2677239763779529
11
5.3691772047244095
21
-2.2729304724409447
0
LINE
8
BLACK
6
CONTINUOUS
10
5.3691772047244095
20
-2.2729304724409447
11
5.3691755905511807
21
-2.2729318897637794
0
LINE
8
BLACK
6
CONTINUOUS
10
5.3691755905511807
20
-2.2729318897637794
11
5.3691773228346458
21
-2.2729353543307087
0
LINE
8
BLACK
6
CONTINUOUS
10
5.3691773228346458
20
-2.2729353543307087
11
5.3709893307086611
21
-2.274965866141732
0
LINE
8
BLACK
6
CONTINUOUS
10
5.3709893307086611
20
-2.274965866141732
11
5.3754535826771654
21
-2.278092598425197
0
LINE
8
BLACK
6
CONTINUOUS
10
5.3754535826771654
20
-2.278092598425197
11
5.3805124409448819
21
-2.2801209448818898
0
LINE
8
BLACK
6
CONTINUOUS
10
5.3805124409448819
20
-2.2801209448818898
11
5.385900236220472
21
-2.2809443307086612
0
LINE
8
BLACK
6
CONTINUOUS
10
5.385900236220472
20
-2.2809443307086612
11
5.3913339763779522
21
-2.2805194881889763
0
LINE
8
BLACK
6
CONTINUOUS
10
5.3913339763779522
20
-2.2805194881889763
11
5.3965283464566927
21
-2.2788688188976378
0
LINE
8
BLACK
6
CONTINUOUS
10
5.3965283464566927
20
-2.2788688188976378
11
5.3988673228346453
21
-2.2774702755905509
0
LINE
8
BLACK
6
CONTINUOUS
10
5.3988673228346453
20
-2.2774702755905509
11
5.3988673622047241
21
-2.2774702362204722
0
LINE
8
BLACK
6
CONTINUOUS
10
5.3988673622047241
20
-2.2774702362204722
11
5.3988674015748028
21
-2.2774702362204722
0
LINE
8
BLACK
6
CONTINUOUS
10
5.3988674015748028
20
-2.2774702362204722
11
5.4481163385826772
21
-2.2490139370078741
0
LINE
8
BLACK
6
CONTINUOUS
10
5.4481163385826772
20
-2.2490139370078741
11
5.4981102755905509
21
-2.2218878346456692
0
LINE
8
BLACK
6
CONTINUOUS
10
5.4981102755905509
20
-2.2218878346456692
11
5.5488132677165352
21
-2.1961113385826772
0
LINE
8
BLACK
6
CONTINUOUS
10
5.5488132677165352
20
-2.1961113385826772
11
5.6001888976377954
21
-2.171703031496063
0
LINE
8
BLACK
6
CONTINUOUS
10
5.6001888976377954
20
-2.171703031496063
11
5.6522002362204722
21
-2.148680433070866
0
LINE
8
BLACK
6
CONTINUOUS
10
5.6522002362204722
20
-2.148680433070866
11
5.7048099606299214
21
-2.1270600787401572
0
LINE
8
BLACK
6
CONTINUOUS
10
5.7048099606299214
20
-2.1270600787401572
11
5.7579802362204724
21
-2.1068575196850392
0
LINE
8
BLACK
6
CONTINUOUS
10
5.7579802362204724
20
-2.1068575196850392
11
5.8116728346456688
21
-2.088087244094488
0
LINE
8
BLACK
6
CONTINUOUS
10
5.8116728346456688
20
-2.088087244094488
11
5.8658492519685037
21
-2.0707627559055117
0
LINE
8
BLACK
6
CONTINUOUS
10
5.8658492519685037
20
-2.0707627559055117
11
5.9204705118110237
21
-2.0548964960629923
0
LINE
8
BLACK
6
CONTINUOUS
10
5.9204705118110237
20
-2.0548964960629923
11
5.9754973622047247
21
-2.0404998818897639
0
LINE
8
BLACK
6
CONTINUOUS
10
5.9754973622047247
20
-2.0404998818897639
11
6.0308903543307082
21
-2.027583188976378
0
LINE
8
BLACK
6
CONTINUOUS
10
6.0308903543307082
20
-2.027583188976378
11
6.0866096062992128
21
-2.016155787401575
0
LINE
8
BLACK
6
CONTINUOUS
10
6.0866096062992128
20
-2.016155787401575
11
6.1426150787401577
21
-2.0062258267716535
0
LINE
8
BLACK
6
CONTINUOUS
10
6.1426150787401577
20
-2.0062258267716535
11
6.1988666141732285
21
-1.9978004724409448
0
LINE
8
BLACK
6
CONTINUOUS
10
6.1988666141732285
20
-1.9978004724409448
11
6.2553237401574799
21
-1.9908857480314961
0
LINE
8
BLACK
6
CONTINUOUS
10
6.2553237401574799
20
-1.9908857480314961
11
6.311945905511811
21
-1.9854866535433071
0
LINE
8
BLACK
6
CONTINUOUS
10
6.311945905511811
20
-1.9854866535433071
11
6.3686924409448817
21
-1.9816070472440945
0
LINE
8
BLACK
6
CONTINUOUS
10
6.3686924409448817
20
-1.9816070472440945
11
6.4255225590551177
21
-1.9792497244094487
0
LINE
8
BLACK
6
CONTINUOUS
10
6.4255225590551177
20
-1.9792497244094487
11
6.4823954724409445
21
-1.9784163779527559
0
LINE
8
BLACK
6
CONTINUOUS
10
6.4823954724409445
20
-1.9784163779527559
11
6.5392702755905514
21
-1.9791075984251969
0
LINE
8
BLACK
6
CONTINUOUS
10
6.4540687795275593
20
-1.9863251181102362
11
6.3974180314960627
21
-1.9879148425196851
0
LINE
8
BLACK
6
CONTINUOUS
10
6.3974180314960627
20
-1.9879148425196851
11
6.340830236220472
21
-1.9910222834645668
0
LINE
8
BLACK
6
CONTINUOUS
10
6.340830236220472
20
-1.9910222834645668
11
6.2843460629921255
21
-1.9956452755905512
0
LINE
8
BLACK
6
CONTINUOUS
10
6.2843460629921255
20
-1.9956452755905512
11
6.2280060629921259
21
-2.0017804330708659
0
LINE
8
BLACK
6
CONTINUOUS
10
6.2280060629921259
20
-2.0017804330708659
11
6.1718507480314964
21
-2.0094233858267718
0
LINE
8
BLACK
6
CONTINUOUS
10
6.1718507480314964
20
-2.0094233858267718
11
6.1159204330708663
21
-2.0185686220472441
0
LINE
8
BLACK
6
CONTINUOUS
10
6.1159204330708663
20
-2.0185686220472441
11
6.0602553543307085
21
-2.0292096062992124
0
LINE
8
BLACK
6
CONTINUOUS
10
6.0602553543307085
20
-2.0292096062992124
11
6.0048954330708657
21
-2.0413386614173228
0
LINE
8
BLACK
6
CONTINUOUS
10
6.0048954330708657
20
-2.0413386614173228
11
5.9498804724409444
21
-2.054947086614173
0
LINE
8
BLACK
6
CONTINUOUS
10
5.9498804724409444
20
-2.054947086614173
11
5.8952499999999999
21
-2.0700250787401573
0
LINE
8
BLACK
6
CONTINUOUS
10
5.8952499999999999
20
-2.0700250787401573
11
5.8410432677165351
21
-2.0865618503937009
0
LINE
8
BLACK
6
CONTINUOUS
10
5.8410432677165351
20
-2.0865618503937009
11
5.7872992125984251
21
-2.1045455118110237
0
LINE
8
BLACK
6
CONTINUOUS
10
5.7872992125984251
20
-2.1045455118110237
11
5.7340564566929135
21
-2.1239631102362204
0
LINE
8
BLACK
6
CONTINUOUS
10
5.7340564566929135
20
-2.1239631102362204
11
5.681353228346457
21
-2.1448007480314959
0
LINE
8
BLACK
6
CONTINUOUS
10
5.681353228346457
20
-2.1448007480314959
11
5.6292274409448817
21
-2.1670433858267715
0
LINE
8
BLACK
6
CONTINUOUS
10
5.6292274409448817
20
-2.1670433858267715
11
5.5777164960629921
21
-2.1906750787401572
0
LINE
8
BLACK
6
CONTINUOUS
10
5.5777164960629921
20
-2.1906750787401572
11
5.5268574015748033
21
-2.2156788582677165
0
LINE
8
BLACK
6
CONTINUOUS
10
5.5268574015748033
20
-2.2156788582677165
11
5.476686732283464
21
-2.2420367716535434
0
LINE
8
BLACK
6
CONTINUOUS
10
5.476686732283464
20
-2.2420367716535434
11
5.4272405118110232
21
-2.269729842519685
0
LINE
8
BLACK
6
CONTINUOUS
10
5.4272405118110232
20
-2.269729842519685
11
5.4028977559055118
21
-2.2842346062992127
0
LINE
8
BLACK
6
CONTINUOUS
10
5.4028977559055118
20
-2.2842346062992127
11
5.402897716535433
21
-2.284234566929134
0
LINE
8
BLACK
6
CONTINUOUS
10
5.402897716535433
20
-2.284234566929134
11
5.3972942125984247
21
-2.2868653149606297
0
LINE
8
BLACK
6
CONTINUOUS
10
5.3972942125984247
20
-2.2868653149606297
11
5.3912842519685036
21
-2.288349251968504
0
LINE
8
BLACK
6
CONTINUOUS
10
5.3912842519685036
20
-2.288349251968504
11
5.3851001574803146
21
-2.2886290157480316
0
LINE
8
BLACK
6
CONTINUOUS
10
5.3851001574803146
20
-2.2886290157480316
11
5.3789807874015745
21
-2.2876938582677164
0
LINE
8
BLACK
6
CONTINUOUS
10
5.3789807874015745
20
-2.2876938582677164
11
5.3731625196850397
21
-2.2855798031496062
0
LINE
8
BLACK
6
CONTINUOUS
10
5.3731625196850397
20
-2.2855798031496062
11
5.3678701181102362
21
-2.2823686220472439
0
LINE
8
BLACK
6
CONTINUOUS
10
5.3678701181102362
20
-2.2823686220472439
11
5.3633079921259839
21
-2.2781842913385826
0
LINE
8
BLACK
6
CONTINUOUS
10
5.3633079921259839
20
-2.2781842913385826
11
5.3633087401574802
21
-2.2781836220472442
0
LINE
8
BLACK
6
CONTINUOUS
10
5.3633087401574802
20
-2.2781836220472442
11
5.363304921259842
21
-2.2781761417322834
0
LINE
8
BLACK
6
CONTINUOUS
10
5.363304921259842
20
-2.2781761417322834
11
5.3612223228346458
21
-2.2758532677165353
0
LINE
8
BLACK
6
CONTINUOUS
10
5.3612223228346458
20
-2.2758532677165353
11
5.3562978740157483
21
-2.2719952362204725
0
LINE
8
BLACK
6
CONTINUOUS
10
5.3562978740157483
20
-2.2719952362204725
11
5.3507736614173229
21
-2.2690596456692913
0
LINE
8
BLACK
6
CONTINUOUS
10
5.3507736614173229
20
-2.2690596456692913
11
5.3448205905511808
21
-2.2671372834645669
0
LINE
8
BLACK
6
CONTINUOUS
10
5.3448205905511808
20
-2.2671372834645669
11
5.3386227952755902
21
-2.2662876377952754
0
LINE
8
BLACK
6
CONTINUOUS
10
5.3386227952755902
20
-2.2662876377952754
11
5.3323719685039368
21
-2.2665369291338582
0
LINE
8
BLACK
6
CONTINUOUS
10
5.3323719685039368
20
-2.2665369291338582
11
5.3262615354330709
21
-2.2678775196850394
0
LINE
8
BLACK
6
CONTINUOUS
10
5.3262615354330709
20
-2.2678775196850394
11
5.3204804724409449
21
-2.2702679133858266
0
LINE
8
BLACK
6
CONTINUOUS
10
5.3204804724409449
20
-2.2702679133858266
11
5.3178427165354334
21
-2.2719489763779528
0
LINE
8
BLACK
6
CONTINUOUS
10
5.3178427165354334
20
-2.2719489763779528
11
5.3178426377952759
21
-2.2719489763779528
0
LINE
8
BLACK
6
CONTINUOUS
10
5.3178426377952759
20
-2.2719489763779528
11
5.3178425590551184
21
-2.271949094488189
0
LINE
8
BLACK
6
CONTINUOUS
10
5.3178425590551184
20
-2.271949094488189
11
5.3178425590551184
21
-2.2719491338582678
0
LINE
8
BLACK
6
CONTINUOUS
10
5.3178425590551184
20
-2.2719491338582678
11
5.3133082677165353
21
-2.2748435433070866
0
LINE
8
BLACK
6
CONTINUOUS
10
5.3133082677165353
20
-2.2748435433070866
11
5.3042685039370081
21
-2.280677244094488
0
LINE
8
BLACK
6
CONTINUOUS
10
5.3042685039370081
20
-2.280677244094488
11
5.2952577559055118
21
-2.2865557086614174
0
LINE
8
BLACK
6
CONTINUOUS
10
5.2952577559055118
20
-2.2865557086614174
11
5.2907670078740159
21
-2.2895172440944882
0
LINE
8
BLACK
6
CONTINUOUS
10
5.2907670078740159
20
-2.2895172440944882
11
5.2907670078740159
21
-2.2895172047244094
0
LINE
8
BLACK
6
CONTINUOUS
10
5.2907670078740159
20
-2.2895172047244094
11
5.2907668897637796
21
-2.2895172047244094
0
LINE
8
BLACK
6
CONTINUOUS
10
5.2907668897637796
20
-2.2895172047244094
11
5.2840051574803146
21
-2.2931606692913387
0
LINE
8
BLACK
6
CONTINUOUS
10
5.2840051574803146
20
-2.2931606692913387
11
5.2767059055118111
21
-2.295552244094488
0
LINE
8
BLACK
6
CONTINUOUS
10
5.2767059055118111
20
-2.295552244094488
11
5.2690989370078736
21
-2.2966166141732285
0
LINE
8
BLACK
6
CONTINUOUS
10
5.2690989370078736
20
-2.2966166141732285
11
5.2614236220472437
21
-2.2963203149606297
0
LINE
8
BLACK
6
CONTINUOUS
10
5.2614236220472437
20
-2.2963203149606297
11
5.2539213385826766
21
-2.2946726771653543
0
LINE
8
BLACK
6
CONTINUOUS
10
5.2539213385826766
20
-2.2946726771653543
11
5.2468281889763775
21
-2.2917255118110234
0
LINE
8
BLACK
6
CONTINUOUS
10
5.2468281889763775
20
-2.2917255118110234
11
5.2403672834645665
21
-2.287571535433071
0
LINE
8
BLACK
6
CONTINUOUS
10
5.2403672834645665
20
-2.287571535433071
11
5.2347419291338584
21
-2.2823414173228347
0
LINE
8
BLACK
6
CONTINUOUS
10
5.2347419291338584
20
-2.2823414173228347
11
5.2347411811023621
21
-2.282342086614173
0
LINE
8
BLACK
6
CONTINUOUS
10
5.2347411811023621
20
-2.282342086614173
11
5.2346093307086612
21
-2.282083307086614
0
LINE
8
BLACK
6
CONTINUOUS
10
5.2346093307086612
20
-2.282083307086614
11
5.1232244094488184
21
-2.158487598425197
0
LINE
8
BLACK
6
CONTINUOUS
10
5.1232244094488184
20
-2.158487598425197
11
4.9154877559055121
21
-2.345633346456693
0
LINE
8
BLACK
6
CONTINUOUS
10
4.9154877559055121
20
-2.345633346456693
11
5.0709739370078735
21
-2.5182075196850393
0
LINE
8
BLACK
6
CONTINUOUS
10
5.0709739370078735
20
-2.5182075196850393
11
5.0709770866141728
21
-2.5182117716535433
0
LINE
8
BLACK
6
CONTINUOUS
10
5.0709770866141728
20
-2.5182117716535433
11
5.0709788582677167
21
-2.5182129527559054
0
LINE
8
BLACK
6
CONTINUOUS
10
5.0709788582677167
20
-2.5182129527559054
11
5.0709808661417322
21
-2.5182169291338581
0
LINE
8
BLACK
6
CONTINUOUS
10
5.0709808661417322
20
-2.5182169291338581
11
5.0714316929133858
21
-2.5188288976377953
0
LINE
8
BLACK
6
CONTINUOUS
10
5.0714316929133858
20
-2.5188288976377953
11
5.0717565748031497
21
-2.5197463779527558
0
LINE
8
BLACK
6
CONTINUOUS
10
5.0717565748031497
20
-2.5197463779527558
11
5.0719006692913382
21
-2.5200305118110236
0
LINE
8
BLACK
6
CONTINUOUS
10
5.0719006692913382
20
-2.5200305118110236
11
5.0718948818897633
21
-2.5201370078740157
0
LINE
8
BLACK
6
CONTINUOUS
10
5.0718948818897633
20
-2.5201370078740157
11
5.0719444488188978
21
-2.520276968503937
0
LINE
8
BLACK
6
CONTINUOUS
10
5.0719444488188978
20
-2.520276968503937
11
5.0718640551181098
21
-2.5218109842519683
0
LINE
8
BLACK
6
CONTINUOUS
10
5.0718640551181098
20
-2.5218109842519683
11
5.0717963385826774
21
-2.5219529527559055
0
LINE
8
BLACK
6
CONTINUOUS
10
5.0717963385826774
20
-2.5219529527559055
11
5.0717902362204725
21
-2.5220654330708663
0
LINE
8
BLACK
6
CONTINUOUS
10
5.0717902362204725
20
-2.5220654330708663
11
5.0716131889763778
21
-2.5223369291338584
0
LINE
8
BLACK
6
CONTINUOUS
10
5.0716131889763778
20
-2.5223369291338584
11
5.0712027559055119
21
-2.5231975196850391
0
LINE
8
BLACK
6
CONTINUOUS
10
5.0712027559055119
20
-2.5231975196850391
11
5.0708377952755903
21
-2.5235261023622049
0
LINE
8
BLACK
6
CONTINUOUS
10
5.0708377952755903
20
-2.5235261023622049
11
5.0706771259842522
21
-2.5237725590551179
0
LINE
8
BLACK
6
CONTINUOUS
10
5.0706771259842522
20
-2.5237725590551179
11
5.0556714173228343
21
-2.5372332677165352
0
LINE
8
BLACK
6
CONTINUOUS
10
5.0556714173228343
20
-2.5372332677165352
11
5.026177952755905
21
-2.5647211417322833
0
LINE
8
BLACK
6
CONTINUOUS
10
5.026177952755905
20
-2.5647211417322833
11
4.997213031496063
21
-2.5927654330708663
0
LINE
8
BLACK
6
CONTINUOUS
10
4.997213031496063
20
-2.5927654330708663
11
4.968787165354331
21
-2.6213559448818895
0
LINE
8
BLACK
6
CONTINUOUS
10
4.968787165354331
20
-2.6213559448818895
11
4.9573250393700787
21
-2.6333319291338584
0
LINE
8
BLACK
6
CONTINUOUS
10
4.9573250393700787
20
-2.6333319291338584
11
5.0590727165354332
21
-2.7462270472440946
0
LINE
8
BLACK
6
CONTINUOUS
10
5.0590727165354332
20
-2.7462270472440946
11
5.2778061811023624
21
-2.5491783858267718
0
LINE
8
BLACK
6
CONTINUOUS
10
5.2778061811023624
20
-2.5491783858267718
11
5.2784275590551184
21
-2.5487206692913387
0
LINE
8
BLACK
6
CONTINUOUS
10
5.2784275590551184
20
-2.5487206692913387
11
5.2784344881889762
21
-2.5487181889763777
0
LINE
8
BLACK
6
CONTINUOUS
10
5.2784344881889762
20
-2.5487181889763777
11
5.2829242519685042
21
-2.5454289370078738
0
LINE
8
BLACK
6
CONTINUOUS
10
5.2829242519685042
20
-2.5454289370078738
11
5.2886905511811024
21
-2.5427811811023622
0
LINE
8
BLACK
6
CONTINUOUS
10
5.2886905511811024
20
-2.5427811811023622
11
5.2948705905511808
21
-2.541343031496063
0
LINE
8
BLACK
6
CONTINUOUS
10
5.2948705905511808
20
-2.541343031496063
11
5.3012134645669287
21
-2.5411729527559053
0
LINE
8
BLACK
6
CONTINUOUS
10
5.3012134645669287
20
-2.5411729527559053
11
5.3074616929133853
21
-2.5422778346456694
0
LINE
8
BLACK
6
CONTINUOUS
10
5.3074616929133853
20
-2.5422778346456694
11
5.3133616141732283
21
-2.5446127559055118
0
LINE
8
BLACK
6
CONTINUOUS
10
5.3133616141732283
20
-2.5446127559055118
11
5.3186737401574806
21
-2.548082992125984
0
LINE
8
BLACK
6
CONTINUOUS
10
5.3186737401574806
20
-2.548082992125984
11
5.3226296850393702
21
-2.5520003543307088
0
LINE
8
BLACK
6
CONTINUOUS
10
5.3226296850393702
20
-2.5520003543307088
11
5.32263468503937
21
-2.5520029921259844
0
LINE
8
BLACK
6
CONTINUOUS
10
5.32263468503937
20
-2.5520029921259844
11
5.3226449999999996
21
-2.5520155118110237
0
LINE
8
BLACK
6
CONTINUOUS
10
5.3226449999999996
20
-2.5520155118110237
11
5.3231824015748028
21
-2.5525476377952754
0
LINE
8
BLACK
6
CONTINUOUS
10
5.3231824015748028
20
-2.5525476377952754
11
5.3231820472440941
21
-2.5525479133858267
0
LINE
8
BLACK
6
CONTINUOUS
10
5.3231820472440941
20
-2.5525479133858267
11
5.3233014173228348
21
-2.5528098818897638
0
LINE
8
BLACK
6
CONTINUOUS
10
5.3233014173228348
20
-2.5528098818897638
11
5.3687885826771655
21
-2.6078585433070867
0
LINE
8
BLACK
6
CONTINUOUS
10
5.3687885826771655
20
-2.6078585433070867
11
5.3687885826771655
21
-2.6078585826771654
0
LINE
8
BLACK
6
CONTINUOUS
10
5.3687885826771655
20
-2.6078585826771654
11
5.368788661417323
21
-2.6078586220472442
0
LINE
8
BLACK
6
CONTINUOUS
10
5.368788661417323
20
-2.6078586220472442
11
5.3687895669291334
21
-2.6078578740157479
0
LINE
8
BLACK
6
CONTINUOUS
10
5.3687895669291334
20
-2.6078578740157479
11
5.3721537007874014
21
-2.6119443307086612
0
LINE
8
BLACK
6
CONTINUOUS
10
5.3721537007874014
20
-2.6119443307086612
11
5.3799711811023618
21
-2.6190825196850391
0
LINE
8
BLACK
6
CONTINUOUS
10
5.3799711811023618
20
-2.6190825196850391
11
5.3887159055118108
21
-2.625048779527559
0
LINE
8
BLACK
6
CONTINUOUS
10
5.3887159055118108
20
-2.625048779527559
11
5.3982135826771653
21
-2.6297242913385825
0
LINE
8
BLACK
6
CONTINUOUS
10
5.3982135826771653
20
-2.6297242913385825
11
5.4082749999999997
21
-2.6330158661417324
0
LINE
8
BLACK
6
CONTINUOUS
10
5.4082749999999997
20
-2.6330158661417324
11
5.4186996850393703
21
-2.6348579133858268
0
LINE
8
BLACK
6
CONTINUOUS
10
5.4186996850393703
20
-2.6348579133858268
11
5.4292798425196853
21
-2.6352137007874017
0
LINE
8
BLACK
6
CONTINUOUS
10
5.4292798425196853
20
-2.6352137007874017
11
5.4398046850393698
21
-2.6340761417322835
0
LINE
8
BLACK
6
CONTINUOUS
10
5.4398046850393698
20
-2.6340761417322835
11
5.4500645275590553
21
-2.6314679527559055
0
LINE
8
BLACK
6
CONTINUOUS
10
5.4500645275590553
20
-2.6314679527559055
11
5.4598548425196851
21
-2.6274410629921259
0
LINE
8
BLACK
6
CONTINUOUS
10
5.4598548425196851
20
-2.6274410629921259
11
5.4689806299212593
21
-2.622075748031496
0
LINE
8
BLACK
6
CONTINUOUS
10
5.4689806299212593
20
-2.622075748031496
11
5.4772600000000002
21
-2.6154788582677164
0
LINE
8
BLACK
6
CONTINUOUS
10
5.4772600000000002
20
-2.6154788582677164
11
5.484527992125984
21
-2.6077819291338584
0
LINE
8
BLACK
6
CONTINUOUS
10
5.484527992125984
20
-2.6077819291338584
11
5.4906397244094487
21
-2.5991382677165356
0
LINE
8
BLACK
6
CONTINUOUS
10
5.4906397244094487
20
-2.5991382677165356
11
5.4954735039370082
21
-2.5897201181102361
0
LINE
8
BLACK
6
CONTINUOUS
10
5.4954735039370082
20
-2.5897201181102361
11
5.4989329527559052
21
-2.5797151968503935
0
LINE
8
BLACK
6
CONTINUOUS
10
5.4989329527559052
20
-2.5797151968503935
11
5.5009491732283466
21
-2.5693227952755904
0
LINE
8
BLACK
6
CONTINUOUS
10
5.5009491732283466
20
-2.5693227952755904
11
5.5014819291338579
21
-2.5587500787401574
0
LINE
8
BLACK
6
CONTINUOUS
10
5.5014819291338579
20
-2.5587500787401574
11
5.5005206692913386
21
-2.5482076771653541
0
LINE
8
BLACK
6
CONTINUOUS
10
5.5005206692913386
20
-2.5482076771653541
11
5.4980844881889759
21
-2.5379056299212599
0
LINE
8
BLACK
6
CONTINUOUS
10
5.4980844881889759
20
-2.5379056299212599
11
5.4942219685039371
21
-2.5280492913385828
0
LINE
8
BLACK
6
CONTINUOUS
10
5.4942219685039371
20
-2.5280492913385828
11
5.4916125196850389
21
-2.5234441338582676
0
LINE
8
BLACK
6
CONTINUOUS
10
5.4916125196850389
20
-2.5234441338582676
11
5.4915404330708659
21
-2.5231653149606297
0
LINE
8
BLACK
6
CONTINUOUS
10
5.4915404330708659
20
-2.5231653149606297
11
5.4563192125984248
21
-2.4610445669291336
0
LINE
8
BLACK
6
CONTINUOUS
10
5.4563192125984248
20
-2.4610445669291336
11
5.4560069291338582
21
-2.4603387795275591
0
LINE
8
BLACK
6
CONTINUOUS
10
5.4560069291338582
20
-2.4603387795275591
11
5.4560060236220469
21
-2.4603314566929133
0
LINE
8
BLACK
6
CONTINUOUS
10
5.4560060236220469
20
-2.4603314566929133
11
5.4537675984251965
21
-2.4552358661417322
0
LINE
8
BLACK
6
CONTINUOUS
10
5.4537675984251965
20
-2.4552358661417322
11
5.4524319685039373
21
-2.4490333070866139
0
LINE
8
BLACK
6
CONTINUOUS
10
5.4524319685039373
20
-2.4490333070866139
11
5.4523668503937008
21
-2.4426888976377952
0
LINE
8
BLACK
6
CONTINUOUS
10
5.4523668503937008
20
-2.4426888976377952
11
5.4535747637795273
21
-2.4364601968503936
0
LINE
8
BLACK
6
CONTINUOUS
10
5.4535747637795273
20
-2.4364601968503936
11
5.4560067716535432
21
-2.4306000393700788
0
LINE
8
BLACK
6
CONTINUOUS
10
5.4560067716535432
20
-2.4306000393700788
11
5.4595640944881891
21
-2.4253463385826772
0
LINE
8
BLACK
6
CONTINUOUS
10
5.4595640944881891
20
-2.4253463385826772
11
5.4641023228346457
21
-2.4209123622047244
0
LINE
8
BLACK
6
CONTINUOUS
10
5.4641023228346457
20
-2.4209123622047244
11
5.4687731102362207
21
-2.4179056299212598
0
LINE
8
BLACK
6
CONTINUOUS
10
5.4687731102362207
20
-2.4179056299212598
11
5.4687850787401571
21
-2.417891653543307
0
LINE
8
BLACK
6
CONTINUOUS
10
5.4687850787401571
20
-2.417891653543307
11
5.4688320866141735
21
-2.4178676377952755
0
LINE
8
BLACK
6
CONTINUOUS
10
5.4688320866141735
20
-2.4178676377952755
11
5.4694372834645666
21
-2.4174781102362206
0
LINE
8
BLACK
6
CONTINUOUS
10
5.4694372834645666
20
-2.4174781102362206
11
5.4694357874015749
21
-2.4174752362204726
0
LINE
8
BLACK
6
CONTINUOUS
10
5.4694357874015749
20
-2.4174752362204726
11
5.4697203543307085
21
-2.4174147637795276
0
LINE
8
BLACK
6
CONTINUOUS
10
5.4697203543307085
20
-2.4174147637795276
11
5.7390529921259841
21
-2.2800983070866141
0
LINE
8
BLACK
6
CONTINUOUS
10
5.7390529921259841
20
-2.2800983070866141
11
5.7392943700787402
21
-2.2800038188976379
0
LINE
8
BLACK
6
CONTINUOUS
10
5.7392943700787402
20
-2.2800038188976379
11
5.7393480314960632
21
-2.2799629921259843
0
LINE
8
BLACK
6
CONTINUOUS
10
5.7393480314960632
20
-2.2799629921259843
11
5.739348070866142
21
-2.2799629921259843
0
LINE
8
BLACK
6
CONTINUOUS
10
5.739348070866142
20
-2.2799629921259843
11
5.7836420866141731
21
-2.2624427952755903
0
LINE
8
BLACK
6
CONTINUOUS
10
5.7836420866141731
20
-2.2624427952755903
11
5.8283473228346452
21
-2.2460000787401575
0
LINE
8
BLACK
6
CONTINUOUS
10
5.8283473228346452
20
-2.2460000787401575
11
5.873437519685039
21
-2.230644527559055
0
LINE
8
BLACK
6
CONTINUOUS
10
5.873437519685039
20
-2.230644527559055
11
5.9188862598425196
21
-2.2163850787401573
0
LINE
8
BLACK
6
CONTINUOUS
10
5.9188862598425196
20
-2.2163850787401573
11
5.9188862992125983
21
-2.2163851968503936
0
LINE
8
BLACK
6
CONTINUOUS
10
5.9188862992125983
20
-2.2163851968503936
11
5.9192339370078741
21
-2.2163746850393702
0
LINE
8
BLACK
6
CONTINUOUS
10
5.9192339370078741
20
-2.2163746850393702
11
6.2356169291338581
21
-2.149048307086614
0
LINE
8
BLACK
6
CONTINUOUS
10
6.2356169291338581
20
-2.149048307086614
11
6.2358745669291338
21
-2.1490194881889764
0
LINE
8
BLACK
6
CONTINUOUS
10
6.2358745669291338
20
-2.1490194881889764
11
6.2359369291338584
21
-2.1489939763779526
0
LINE
8
BLACK
6
CONTINUOUS
10
6.2359369291338584
20
-2.1489939763779526
11
6.2832562598425197
21
-2.1435348818897637
0
LINE
8
BLACK
6
CONTINUOUS
10
6.2832562598425197
20
-2.1435348818897637
11
6.3306938976377953
21
-2.1392229921259842
0
LINE
8
BLACK
6
CONTINUOUS
10
6.3306938976377953
20
-2.1392229921259842
11
6.3782220078740153
21
-2.1360609448818897
0
LINE
8
BLACK
6
CONTINUOUS
10
6.3782220078740153
20
-2.1360609448818897
11
6.4258127165354333
21
-2.1340504724409448
0
LINE
8
BLACK
6
CONTINUOUS
10
6.4258127165354333
20
-2.1340504724409448
11
6.4261513385826774
21
-2.1341303543307086
0
LINE
8
BLACK
6
CONTINUOUS
10
6.4261513385826774
20
-2.1341303543307086
11
6.7491790157480311
21
-2.1509839763779528
0
LINE
8
BLACK
6
CONTINUOUS
10
6.7491790157480311
20
-2.1509839763779528
11
6.7494354330708664
21
-2.1510228346456692
0
LINE
8
BLACK
6
CONTINUOUS
10
6.7494354330708664
20
-2.1510228346456692
11
6.7495022440944883
21
-2.1510143307086613
0
LINE
8
BLACK
6
CONTINUOUS
10
6.7495022440944883
20
-2.1510143307086613
11
6.7495022047244095
21
-2.1510143700787401
0
LINE
8
BLACK
6
CONTINUOUS
10
6.7495022047244095
20
-2.1510143700787401
11
6.7966220866141729
21
-2.1579884251968502
0
LINE
8
BLACK
6
CONTINUOUS
10
6.7966220866141729
20
-2.1579884251968502
11
6.8435592913385825
21
-2.1661012598425198
0
LINE
8
BLACK
6
CONTINUOUS
10
6.8435592913385825
20
-2.1661012598425198
11
6.8902862992125984
21
-2.175348149606299
0
LINE
8
BLACK
6
CONTINUOUS
10
6.8902862992125984
20
-2.175348149606299
11
6.9367757480314962
21
-2.1857236220472442
0
LINE
8
BLACK
6
CONTINUOUS
10
6.9367757480314962
20
-2.1857236220472442
11
6.936775787401575
21
-2.1857234251968505
0
LINE
8
BLACK
6
CONTINUOUS
10
6.936775787401575
20
-2.1857234251968505
11
6.9370822834645667
21
-2.1858882677165354
0
LINE
8
BLACK
6
CONTINUOUS
10
6.9370822834645667
20
-2.1858882677165354
11
7.2447410236220469
21
-2.2857732677165354
0
LINE
8
BLACK
6
CONTINUOUS
10
7.2447410236220469
20
-2.2857732677165354
11
7.2449785433070861
21
-2.2858771259842521
0
LINE
8
BLACK
6
CONTINUOUS
10
7.2449785433070861
20
-2.2858771259842521
11
7.2450453149606293
21
-2.2858862204724408
0
LINE
8
BLACK
6
CONTINUOUS
10
7.2450453149606293
20
-2.2858862204724408
11
7.2887546456692913
21
-2.3048180708661419
0
LINE
8
BLACK
6
CONTINUOUS
10
7.2887546456692913
20
-2.3048180708661419
11
7.3319927952755908
21
-2.3248026771653545
0
LINE
8
BLACK
6
CONTINUOUS
10
7.3319927952755908
20
-2.3248026771653545
11
7.374734409448819
21
-2.3458282283464564
0
LINE
8
BLACK
6
CONTINUOUS
10
7.374734409448819
20
-2.3458282283464564
11
7.4169544094488185
21
-2.3678825196850393
0
LINE
8
BLACK
6
CONTINUOUS
10
7.4169544094488185
20
-2.3678825196850393
11
7.4169543307086609
21
-2.3678826377952755
0
LINE
8
BLACK
6
CONTINUOUS
10
7.4169543307086609
20
-2.3678826377952755
11
7.4172077165354331
21
-2.3681211811023624
0
LINE
8
BLACK
6
CONTINUOUS
10
7.4172077165354331
20
-2.3681211811023624
11
7.6710146850393697
21
-2.5328554330708659
0
LINE
8
BLACK
6
CONTINUOUS
10
7.6710146850393697
20
-2.5328554330708659
11
7.6710147244094484
21
-2.5328554724409447
0
LINE
8
BLACK
6
CONTINUOUS
10
7.6710147244094484
20
-2.5328554724409447
11
7.6710148425196847
21
-2.5328555118110234
0
LINE
8
BLACK
6
CONTINUOUS
10
7.6710148425196847
20
-2.5328555118110234
11
7.6710148425196847
21
-2.5328555511811022
0
LINE
8
BLACK
6
CONTINUOUS
10
7.6710148425196847
20
-2.5328555511811022
11
7.6716176377952756
21
-2.5333371653543306
0
LINE
8
BLACK
6
CONTINUOUS
10
7.6716176377952756
20
-2.5333371653543306
11
7.6716218503937004
21
-2.5333433070866143
0
LINE
8
BLACK
6
CONTINUOUS
10
7.6716218503937004
20
-2.5333433070866143
11
7.6759606692913387
21
-2.5368296850393701
0
LINE
8
BLACK
6
CONTINUOUS
10
7.6759606692913387
20
-2.5368296850393701
11
7.6800097637795277
21
-2.5417143700787399
0
LINE
8
BLACK
6
CONTINUOUS
10
7.6800097637795277
20
-2.5417143700787399
11
7.6829977559055118
21
-2.5473114173228346
0
LINE
8
BLACK
6
CONTINUOUS
10
7.6829977559055118
20
-2.5473114173228346
11
7.6848035039370073
21
-2.5533937007874017
0
LINE
8
BLACK
6
CONTINUOUS
10
7.6848035039370073
20
-2.5533937007874017
11
7.6853537007874015
21
-2.5597145275590552
0
LINE
8
BLACK
6
CONTINUOUS
10
7.6853537007874015
20
-2.5597145275590552
11
7.6846260236220472
21
-2.5660173228346457
0
LINE
8
BLACK
6
CONTINUOUS
10
7.6846260236220472
20
-2.5660173228346457
11
7.682649960629921
21
-2.5720464566929135
0
LINE
8
BLACK
6
CONTINUOUS
10
7.682649960629921
20
-2.5720464566929135
11
7.6798894488188978
21
-2.5768847637795274
0
LINE
8
BLACK
6
CONTINUOUS
10
7.6798894488188978
20
-2.5768847637795274
11
7.6798888188976377
21
-2.5768875196850392
0
LINE
8
BLACK
6
CONTINUOUS
10
7.6798888188976377
20
-2.5768875196850392
11
7.6798840944881892
21
-2.5768941338582678
0
LINE
8
BLACK
6
CONTINUOUS
10
7.6798840944881892
20
-2.5768941338582678
11
7.6795057480314961
21
-2.577557283464567
0
LINE
8
BLACK
6
CONTINUOUS
10
7.6795057480314961
20
-2.577557283464567
11
7.679504645669291
21
-2.577556496062992
0
LINE
8
BLACK
6
CONTINUOUS
10
7.679504645669291
20
-2.577556496062992
11
7.6792824015748034
21
-2.5777397244094487
0
LINE
8
BLACK
6
CONTINUOUS
10
7.6792824015748034
20
-2.5777397244094487
11
7.6378821259842518
21
-2.6359251181102361
0
LINE
8
BLACK
6
CONTINUOUS
10
7.6378821259842518
20
-2.6359251181102361
11
7.6378821259842518
21
-2.6359251968503936
0
LINE
8
BLACK
6
CONTINUOUS
10
7.6378821259842518
20
-2.6359251968503936
11
7.6378822047244093
21
-2.6359252362204724
0
LINE
8
BLACK
6
CONTINUOUS
10
7.6378822047244093
20
-2.6359252362204724
11
7.6348059448818892
21
-2.6402324803149604
0
LINE
8
BLACK
6
CONTINUOUS
10
7.6348059448818892
20
-2.6402324803149604
11
7.6299348031496059
21
-2.6496311023622048
0
LINE
8
BLACK
6
CONTINUOUS
10
7.6299348031496059
20
-2.6496311023622048
11
7.6264355905511811
21
-2.6596219685039371
0
LINE
8
BLACK
6
CONTINUOUS
10
7.6264355905511811
20
-2.6596219685039371
11
7.624377992125984
21
-2.6700059842519686
0
LINE
8
BLACK
6
CONTINUOUS
10
7.624377992125984
20
-2.6700059842519686
11
7.6238030314960632
21
-2.6805762992125985
0
LINE
8
BLACK
6
CONTINUOUS
10
7.6238030314960632
20
-2.6805762992125985
11
7.6247221259842517
21
-2.6911222440944882
0
LINE
8
BLACK
6
CONTINUOUS
10
7.6247221259842517
20
-2.6911222440944882
11
7.6271169685039366
21
-2.7014337401574804
0
LINE
8
BLACK
6
CONTINUOUS
10
7.6271169685039366
20
-2.7014337401574804
11
7.6309398818897636
21
-2.7113052755905511
0
LINE
8
BLACK
6
CONTINUOUS
10
7.6309398818897636
20
-2.7113052755905511
11
7.6361146456692914
21
-2.7205401968503935
0
LINE
8
BLACK
6
CONTINUOUS
10
7.6361146456692914
20
-2.7205401968503935
11
7.6425381889763777
21
-2.7289544881889762
0
LINE
8
BLACK
6
CONTINUOUS
10
7.6425381889763777
20
-2.7289544881889762
11
7.6500824803149605
21
-2.7363804724409446
0
LINE
8
BLACK
6
CONTINUOUS
10
7.6500824803149605
20
-2.7363804724409446
11
7.6585972440944881
21
-2.7426701968503937
0
LINE
8
BLACK
6
CONTINUOUS
10
7.6585972440944881
20
-2.7426701968503937
11
7.6679127952755906
21
-2.7476983858267716
0
LINE
8
BLACK
6
CONTINUOUS
10
7.6679127952755906
20
-2.7476983858267716
11
7.6778435039370079
21
-2.7513647637795273
0
LINE
8
BLACK
6
CONTINUOUS
10
7.6778435039370079
20
-2.7513647637795273
11
7.6881915748031497
21
-2.7535963385826769
0
LINE
8
BLACK
6
CONTINUOUS
10
7.6881915748031497
20
-2.7535963385826769
11
7.6987507086614171
21
-2.7543486614173229
0
LINE
8
BLACK
6
CONTINUOUS
10
7.6987507086614171
20
-2.7543486614173229
11
7.7093106299212595
21
-2.7536066929133858
0
LINE
8
BLACK
6
CONTINUOUS
10
7.7093106299212595
20
-2.7536066929133858
11
7.7196608267716531
21
-2.7513852362204725
0
LINE
8
BLACK
6
CONTINUOUS
10
7.7196608267716531
20
-2.7513852362204725
11
7.7295951574803148
21
-2.7477285433070864
0
LINE
8
BLACK
6
CONTINUOUS
10
7.7295951574803148
20
-2.7477285433070864
11
7.7389156299212596
21
-2.7427094881889764
0
LINE
8
BLACK
6
CONTINUOUS
10
7.7389156299212596
20
-2.7427094881889764
11
7.7474365354330708
21
-2.7364280708661415
0
LINE
8
BLACK
6
CONTINUOUS
10
7.7474365354330708
20
-2.7364280708661415
11
7.7512094881889766
21
-2.7327159055118111
0
LINE
8
BLACK
6
CONTINUOUS
10
7.7512094881889766
20
-2.7327159055118111
11
7.7513731102362202
21
-2.7326233464566929
0
LINE
8
BLACK
6
CONTINUOUS
10
7.7513731102362202
20
-2.7326233464566929
11
7.7525612992125978
21
-2.7313877952755905
0
LINE
8
BLACK
6
CONTINUOUS
10
7.7525612992125978
20
-2.7313877952755905
11
7.7531621653543308
21
-2.7309034251968503
0
LINE
8
BLACK
6
CONTINUOUS
10
7.7531621653543308
20
-2.7309034251968503
11
7.7532416929133854
21
-2.7308712598425195
0
LINE
8
BLACK
6
CONTINUOUS
10
7.7532416929133854
20
-2.7308712598425195
11
7.9498315748031496
21
-2.5537598031496063
0
LINE
8
BLACK
6
CONTINUOUS
10
7.9498315748031496
20
-2.5537598031496063
11
7.9504529921259843
21
-2.5533020866141731
0
LINE
8
BLACK
6
CONTINUOUS
10
7.9504529921259843
20
-2.5533020866141731
11
7.9510623228346455
21
-2.5530862992125982
0
LINE
8
BLACK
6
CONTINUOUS
10
7.9510623228346455
20
-2.5530862992125982
11
7.951350905511811
21
-2.552909803149606
0
LINE
8
BLACK
6
CONTINUOUS
10
7.951350905511811
20
-2.552909803149606
11
7.9515770078740156
21
-2.5529040551181104
0
LINE
8
BLACK
6
CONTINUOUS
10
7.9515770078740156
20
-2.5529040551181104
11
7.9519010236220469
21
-2.5527893307086615
0
LINE
8
BLACK
6
CONTINUOUS
10
7.9519010236220469
20
-2.5527893307086615
11
7.9532704330708661
21
-2.5528610629921258
0
LINE
8
BLACK
6
CONTINUOUS
10
7.9532704330708661
20
-2.5528610629921258
11
7.953388188976378
21
-2.5528581102362202
0
LINE
8
BLACK
6
CONTINUOUS
10
7.953388188976378
20
-2.5528581102362202
11
7.9534068110236218
21
-2.5528682283464565
0
LINE
8
BLACK
6
CONTINUOUS
10
7.9534068110236218
20
-2.5528682283464565
11
7.9534350787401573
21
-2.5528697244094487
0
LINE
8
BLACK
6
CONTINUOUS
10
7.9534350787401573
20
-2.5528697244094487
11
7.954821574803149
21
-2.553531023622047
0
LINE
8
BLACK
6
CONTINUOUS
10
7.954821574803149
20
-2.553531023622047
11
7.955010275590551
21
-2.5537405905511812
0
LINE
8
BLACK
6
CONTINUOUS
10
7.955010275590551
20
-2.5537405905511812
11
7.9551783464566928
21
-2.5538320472440943
0
LINE
8
BLACK
6
CONTINUOUS
10
7.9551783464566928
20
-2.5538320472440943
11
7.9842454724409446
21
-2.5819909448818898
0
LINE
8
BLACK
6
CONTINUOUS
10
7.9842454724409446
20
-2.5819909448818898
11
8.0127733464566919
21
-2.6106960629921261
0
LINE
8
BLACK
6
CONTINUOUS
10
8.0127733464566919
20
-2.6106960629921261
11
8.0407516929133855
21
-2.6399370078740159
0
LINE
8
BLACK
6
CONTINUOUS
10
8.0407516929133855
20
-2.6399370078740159
11
8.065558031496062
21
-2.6668672440944881
0
LINE
8
BLACK
6
CONTINUOUS
10
8.065558031496062
20
-2.6668672440944881
11
8.22944279527559
21
-2.5192068897637796
0
LINE
8
BLACK
6
CONTINUOUS
10
8.22944279527559
20
-2.5192068897637796
11
8.0422977165354332
21
-2.3114708267716533
0
LINE
8
BLACK
6
CONTINUOUS
10
8.0422977165354332
20
-2.3114708267716533
11
7.9185481102362205
21
-2.4229944881889764
0
LINE
8
BLACK
6
CONTINUOUS
10
7.9185481102362205
20
-2.4229944881889764
11
7.9185480708661418
21
-2.4229946062992127
0
LINE
8
BLACK
6
CONTINUOUS
10
7.9185480708661418
20
-2.4229946062992127
11
7.9124066141732285
21
-2.4276075984251966
0
LINE
8
BLACK
6
CONTINUOUS
10
7.9124066141732285
20
-2.4276075984251966
11
7.9055468503937005
21
-2.4310630708661418
0
LINE
8
BLACK
6
CONTINUOUS
10
7.9055468503937005
20
-2.4310630708661418
11
7.898184488188976
21
-2.4332523228346457
0
LINE
8
BLACK
6
CONTINUOUS
10
7.898184488188976
20
-2.4332523228346457
11
7.8905511811023619
21
-2.4341064960629919
0
LINE
8
BLACK
6
CONTINUOUS
10
7.8905511811023619
20
-2.4341064960629919
11
7.8828870078740154
21
-2.4335987007874014
0
LINE
8
BLACK
6
CONTINUOUS
10
7.8828870078740154
20
-2.4335987007874014
11
7.8754331102362203
21
-2.4317449212598423
0
LINE
8
BLACK
6
CONTINUOUS
10
7.8754331102362203
20
-2.4317449212598423
11
7.8684239763779527
21
-2.4286034645669292
0
LINE
8
BLACK
6
CONTINUOUS
10
7.8684239763779527
20
-2.4286034645669292
11
7.8620850393700783
21
-2.4242765748031494
0
LINE
8
BLACK
6
CONTINUOUS
10
7.8620850393700783
20
-2.4242765748031494
11
7.8620794094488184
21
-2.4242740157480314
0
LINE
8
BLACK
6
CONTINUOUS
10
7.8620794094488184
20
-2.4242740157480314
11
7.8620793700787397
21
-2.4242740157480314
0
LINE
8
BLACK
6
CONTINUOUS
10
7.8620793700787397
20
-2.4242740157480314
11
7.8579227952755906
21
-2.4208592913385827
0
LINE
8
BLACK
6
CONTINUOUS
10
7.8579227952755906
20
-2.4208592913385827
11
7.8495758267716536
21
-2.4140711417322835
0
LINE
8
BLACK
6
CONTINUOUS
10
7.8495758267716536
20
-2.4140711417322835
11
7.8411953543307087
21
-2.4073244488188976
0
LINE
8
BLACK
6
CONTINUOUS
10
7.8411953543307087
20
-2.4073244488188976
11
7.83698842519685
21
-2.4039719291338582
0
LINE
8
BLACK
6
CONTINUOUS
10
7.83698842519685
20
-2.4039719291338582
11
7.8369883464566925
21
-2.4039718503937006
0
LINE
8
BLACK
6
CONTINUOUS
10
7.8369883464566925
20
-2.4039718503937006
11
7.8369880314960625
21
-2.4039722440944882
0
LINE
8
BLACK
6
CONTINUOUS
10
7.8369880314960625
20
-2.4039722440944882
11
7.8345405118110234
21
-2.4020248031496063
0
LINE
8
BLACK
6
CONTINUOUS
10
7.8345405118110234
20
-2.4020248031496063
11
7.8290411023622042
21
-2.3990435039370079
0
LINE
8
BLACK
6
CONTINUOUS
10
7.8290411023622042
20
-2.3990435039370079
11
7.8231044488188974
21
-2.3970717716535432
0
LINE
8
BLACK
6
CONTINUOUS
10
7.8231044488188974
20
-2.3970717716535432
11
7.816914173228346
21
-2.3961706299212597
0
LINE
8
BLACK
6
CONTINUOUS
10
7.816914173228346
20
-2.3961706299212597
11
7.8106617322834646
21
-2.3963679527559054
0
LINE
8
BLACK
6
CONTINUOUS
10
7.8106617322834646
20
-2.3963679527559054
11
7.8045405905511807
21
-2.3976576377952754
0
LINE
8
BLACK
6
CONTINUOUS
10
7.8045405905511807
20
-2.3976576377952754
11
7.7987400787401571
21
-2.3999997637795274
0
LINE
8
BLACK
6
CONTINUOUS
10
7.7987400787401571
20
-2.3999997637795274
11
7.7934396062992128
21
-2.4033219291338583
0
LINE
8
BLACK
6
CONTINUOUS
10
7.7934396062992128
20
-2.4033219291338583
11
7.791119724409449
21
-2.4054198031496061
0
LINE
8
BLACK
6
CONTINUOUS
10
7.791119724409449
20
-2.4054198031496061
11
7.7911191732283465
21
-2.4054200393700786
0
LINE
8
BLACK
6
CONTINUOUS
10
7.7911191732283465
20
-2.4054200393700786
11
7.7861456692913382
21
-2.4091046062992127
0
LINE
8
BLACK
6
CONTINUOUS
10
7.7861456692913382
20
-2.4091046062992127
11
7.7805466535433068
21
-2.4117454330708661
0
LINE
8
BLACK
6
CONTINUOUS
10
7.7805466535433068
20
-2.4117454330708661
11
7.7745392913385825
21
-2.4132400000000001
0
LINE
8
BLACK
6
CONTINUOUS
10
7.7745392913385825
20
-2.4132400000000001
11
7.768355590551181
21
-2.4135305511811023
0
LINE
8
BLACK
6
CONTINUOUS
10
7.768355590551181
20
-2.4135305511811023
11
7.7622345275590545
21
-2.412605905511811
0
LINE
8
BLACK
6
CONTINUOUS
10
7.7622345275590545
20
-2.412605905511811
11
7.7564125590551178
21
-2.4105017322834645
0
LINE
8
BLACK
6
CONTINUOUS
10
7.7564125590551178
20
-2.4105017322834645
11
7.7511146850393695
21
-2.4072993700787402
0
LINE
8
BLACK
6
CONTINUOUS
10
7.7511146850393695
20
-2.4072993700787402
11
7.7511148031496058
21
-2.4072992125984252
0
LINE
8
BLACK
6
CONTINUOUS
10
7.7511148031496058
20
-2.4072992125984252
11
7.7511144881889766
21
-2.4072988188976376
0
LINE
8
BLACK
6
CONTINUOUS
10
7.7511144881889766
20
-2.4072988188976376
11
7.7284218503937003
21
-2.3903294881889763
0
LINE
8
BLACK
6
CONTINUOUS
10
7.7284218503937003
20
-2.3903294881889763
11
7.6821411811023621
21
-2.3576196062992127
0
LINE
8
BLACK
6
CONTINUOUS
10
7.6821411811023621
20
-2.3576196062992127
11
7.6350005118110236
21
-2.3261618503937007
0
LINE
8
BLACK
6
CONTINUOUS
10
7.6350005118110236
20
-2.3261618503937007
11
7.5870336614173226
21
-2.2959788188976376
0
LINE
8
BLACK
6
CONTINUOUS
10
7.5870336614173226
20
-2.2959788188976376
11
7.5382750787401571
21
-2.2670922047244093
0
LINE
8
BLACK
6
CONTINUOUS
10
7.5382750787401571
20
-2.2670922047244093
11
7.4887598031496063
21
-2.2395227952755903
0
LINE
8
BLACK
6
CONTINUOUS
10
7.4887598031496063
20
-2.2395227952755903
11
7.4385234251968502
21
-2.2132903543307085
0
LINE
8
BLACK
6
CONTINUOUS
10
7.4385234251968502
20
-2.2132903543307085
11
7.3876020472440942
21
-2.1884137401574804
0
LINE
8
BLACK
6
CONTINUOUS
10
7.3876020472440942
20
-2.1884137401574804
11
7.3360322047244093
21
-2.1649108267716537
0
LINE
8
BLACK
6
CONTINUOUS
10
7.3360322047244093
20
-2.1649108267716537
11
7.2838509842519681
21
-2.1427985039370077
0
LINE
8
BLACK
6
CONTINUOUS
10
7.2838509842519681
20
-2.1427985039370077
11
7.2310958661417324
21
-2.1220926377952756
0
LINE
8
BLACK
6
CONTINUOUS
10
7.2310958661417324
20
-2.1220926377952756
11
7.1778047244094489
21
-2.1028081496062994
0
LINE
8
BLACK
6
CONTINUOUS
10
7.1778047244094489
20
-2.1028081496062994
11
7.1240159055118113
21
-2.0849588582677163
0
LINE
8
BLACK
6
CONTINUOUS
10
7.1240159055118113
20
-2.0849588582677163
11
7.0697680314960625
21
-2.0685575984251967
0
LINE
8
BLACK
6
CONTINUOUS
10
7.0697680314960625
20
-2.0685575984251967
11
7.0151000393700782
21
-2.0536161417322836
0
LINE
8
BLACK
6
CONTINUOUS
10
7.0151000393700782
20
-2.0536161417322836
11
6.9600512598425199
21
-2.0401452362204724
0
LINE
8
BLACK
6
CONTINUOUS
10
6.9600512598425199
20
-2.0401452362204724
11
6.9046611811023624
21
-2.0281545669291337
0
LINE
8
BLACK
6
CONTINUOUS
10
6.9046611811023624
20
-2.0281545669291337
11
6.8489696850393695
21
-2.0176527165354332
0
LINE
8
BLACK
6
CONTINUOUS
10
6.8489696850393695
20
-2.0176527165354332
11
6.7930166929133859
21
-2.008647244094488
0
LINE
8
BLACK
6
CONTINUOUS
10
6.7930166929133859
20
-2.008647244094488
11
6.7368424409448817
21
-2.0011446456692914
0
LINE
8
BLACK
6
CONTINUOUS
10
6.7368424409448817
20
-2.0011446456692914
11
6.6804872834645668
21
-1.9951503149606298
0
LINE
8
BLACK
6
CONTINUOUS
10
6.6804872834645668
20
-1.9951503149606298
11
6.6239917322834643
21
-1.9906685039370078
0
LINE
8
BLACK
6
CONTINUOUS
10
6.6239917322834643
20
-1.9906685039370078
11
6.567396338582677
21
-1.9877024409448818
0
LINE
8
BLACK
6
CONTINUOUS
10
6.567396338582677
20
-1.9877024409448818
11
6.5107418110236219
21
-1.9862543307086613
0
LINE
8
BLACK
6
CONTINUOUS
10
6.5107418110236219
20
-1.9862543307086613
11
6.4540687795275593
21
-1.9863251181102362
  0
ENDSEC
  0
EOF
