  0
SECTION
  2
HEADER
  9
$ANGBASE
  50
0.0
  9
$ANGDIR
  70
1
  9
$MEASUREMENT
  70
0
  0
ENDSEC
  0
SECTION
  2
TABLES
  0
TABLE
  2
LTYPE
  70
4
  0
LTYPE
  5
40F
  2
CONTINUOUS
  70
0
  3
Solid line
  72
65
  73
0
  40
0.0
  0
LTYPE
  5
410
  2
DASHDOT
 70
0
  3
Dash Dot ____ _ ____ _
 72
65
 73
4
 40
2.0
 49
1.25
 49
-0.25
 49
0.25
 49
-0.25
  0
LTYPE
  5
411
  2
DASHED
 70
0
  3
Dashed __ __ __ __ __
 72
65
 73
2
 40
0.75
 49
0.5
 49
-0.25
  0
LTYPE
  5
43B
  2
DOTTED
 70
0
  3
Dotted .  .  .  .
 72
65
 73
2
 40
0.2
 49
0.0
 49
-0.2
  0
ENDTAB
  0
TABLE
  2
STYLE
  70
4
  0
STYLE
  2
KICAD
  70
0
  40
0
  41
1
  42
1
  50
0
  71
0
  3
isocp.shx
  0
STYLE
  2
KICADB
  70
0
  40
0
  41
1
  42
1
  50
0
  71
0
  3
isocp.shx
  0
STYLE
  2
KICADI
  70
0
  40
0
  41
1
  42
1
  50
15
  71
0
  3
isocp.shx
  0
STYLE
  2
KICADBI
  70
0
  40
0
  41
1
  42
1
  50
15
  71
0
  3
isocp.shx
  0
ENDTAB
  0
TABLE
  2
LAYER
  70
1
  0
LAYER
  2
BLACK
  70
0
  62
7
  6
CONTINUOUS
  0
ENDTAB
  0
ENDSEC
  0
SECTION
  2
ENTITIES
0
LINE
8
BLACK
6
CONTINUOUS
10
5.0711068110236219
20
-2.6795833858267715
11
5.0735685039370075
21
-2.6814216141732281
0
LINE
8
BLACK
6
CONTINUOUS
10
5.0735685039370075
20
-2.6814216141732281
11
5.084105984251968
21
-2.6931246850393702
0
LINE
8
BLACK
6
CONTINUOUS
10
5.084105984251968
20
-2.6931246850393702
11
5.0856768503937007
21
-2.6957650393700785
0
LINE
8
BLACK
6
CONTINUOUS
10
5.0856768503937007
20
-2.6957650393700785
11
5.086117637795275
21
-2.6988055118110235
0
LINE
8
BLACK
6
CONTINUOUS
10
5.086117637795275
20
-2.6988055118110235
11
5.0853614173228348
21
-2.7017832677165354
0
LINE
8
BLACK
6
CONTINUOUS
10
5.0853614173228348
20
-2.7017832677165354
11
5.0835231889763781
21
-2.704244960629921
0
LINE
8
BLACK
6
CONTINUOUS
10
5.0835231889763781
20
-2.704244960629921
11
5.0674314566929128
21
-2.7187340157480313
0
LINE
8
BLACK
6
CONTINUOUS
10
5.0674314566929128
20
-2.7187340157480313
11
5.0647911023622045
21
-2.7203048425196852
0
LINE
8
BLACK
6
CONTINUOUS
10
5.0647911023622045
20
-2.7203048425196852
11
5.06175062992126
21
-2.7207456692913383
0
LINE
8
BLACK
6
CONTINUOUS
10
5.06175062992126
20
-2.7207456692913383
11
5.058772874015748
21
-2.7199894488188976
0
LINE
8
BLACK
6
CONTINUOUS
10
5.058772874015748
20
-2.7199894488188976
11
5.0563111811023624
21
-2.718151220472441
0
LINE
8
BLACK
6
CONTINUOUS
10
5.0563111811023624
20
-2.718151220472441
11
5.0457737007874011
21
-2.7064481496062993
0
LINE
8
BLACK
6
CONTINUOUS
10
5.0457737007874011
20
-2.7064481496062993
11
5.0442028346456693
21
-2.7038077952755906
0
LINE
8
BLACK
6
CONTINUOUS
10
5.0442028346456693
20
-2.7038077952755906
11
5.043762047244094
21
-2.7007673228346456
0
LINE
8
BLACK
6
CONTINUOUS
10
5.043762047244094
20
-2.7007673228346456
11
5.0445182677165352
21
-2.6977895669291336
0
LINE
8
BLACK
6
CONTINUOUS
10
5.0445182677165352
20
-2.6977895669291336
11
5.0463564960629919
21
-2.695327874015748
0
LINE
8
BLACK
6
CONTINUOUS
10
5.0463564960629919
20
-2.695327874015748
11
5.0624482283464562
21
-2.6808388188976378
0
LINE
8
BLACK
6
CONTINUOUS
10
5.0624482283464562
20
-2.6808388188976378
11
5.0650885826771654
21
-2.6792679921259843
0
LINE
8
BLACK
6
CONTINUOUS
10
5.0650885826771654
20
-2.6792679921259843
11
5.06812905511811
21
-2.6788271653543307
0
LINE
8
BLACK
6
CONTINUOUS
10
5.06812905511811
20
-2.6788271653543307
11
5.0711068110236219
21
-2.6795833858267715
0
LINE
8
BLACK
6
CONTINUOUS
10
5.0276397244094486
20
-2.6313082677165354
11
5.0301014173228342
21
-2.633146496062992
0
LINE
8
BLACK
6
CONTINUOUS
10
5.0301014173228342
20
-2.633146496062992
11
5.0406388976377956
21
-2.6448495669291336
0
LINE
8
BLACK
6
CONTINUOUS
10
5.0406388976377956
20
-2.6448495669291336
11
5.0422097637795273
21
-2.6474899212598424
0
LINE
8
BLACK
6
CONTINUOUS
10
5.0422097637795273
20
-2.6474899212598424
11
5.0426505511811026
21
-2.6505303937007874
0
LINE
8
BLACK
6
CONTINUOUS
10
5.0426505511811026
20
-2.6505303937007874
11
5.0418943307086614
21
-2.6535081496062993
0
LINE
8
BLACK
6
CONTINUOUS
10
5.0418943307086614
20
-2.6535081496062993
11
5.0400561023622048
21
-2.6559698425196849
0
LINE
8
BLACK
6
CONTINUOUS
10
5.0400561023622048
20
-2.6559698425196849
11
5.0239643700787404
21
-2.6704588976377952
0
LINE
8
BLACK
6
CONTINUOUS
10
5.0239643700787404
20
-2.6704588976377952
11
5.0213240157480312
21
-2.6720297244094486
0
LINE
8
BLACK
6
CONTINUOUS
10
5.0213240157480312
20
-2.6720297244094486
11
5.0182835433070867
21
-2.6724705511811022
0
LINE
8
BLACK
6
CONTINUOUS
10
5.0182835433070867
20
-2.6724705511811022
11
5.0153057874015747
21
-2.6717143307086615
0
LINE
8
BLACK
6
CONTINUOUS
10
5.0153057874015747
20
-2.6717143307086615
11
5.0128440944881891
21
-2.6698761023622049
0
LINE
8
BLACK
6
CONTINUOUS
10
5.0128440944881891
20
-2.6698761023622049
11
5.0023066141732286
21
-2.6581730314960628
0
LINE
8
BLACK
6
CONTINUOUS
10
5.0023066141732286
20
-2.6581730314960628
11
5.000735748031496
21
-2.6555326771653545
0
LINE
8
BLACK
6
CONTINUOUS
10
5.000735748031496
20
-2.6555326771653545
11
5.0002949606299207
21
-2.6524922047244095
0
LINE
8
BLACK
6
CONTINUOUS
10
5.0002949606299207
20
-2.6524922047244095
11
5.0010511811023619
21
-2.6495144488188975
0
LINE
8
BLACK
6
CONTINUOUS
10
5.0010511811023619
20
-2.6495144488188975
11
5.0028894094488185
21
-2.6470527559055119
0
LINE
8
BLACK
6
CONTINUOUS
10
5.0028894094488185
20
-2.6470527559055119
11
5.0189811417322829
21
-2.6325637007874017
0
LINE
8
BLACK
6
CONTINUOUS
10
5.0189811417322829
20
-2.6325637007874017
11
5.0216214960629921
21
-2.6309928740157478
0
LINE
8
BLACK
6
CONTINUOUS
10
5.0216214960629921
20
-2.6309928740157478
11
5.0246619685039366
21
-2.6305520472440946
0
LINE
8
BLACK
6
CONTINUOUS
10
5.0246619685039366
20
-2.6305520472440946
11
5.0276397244094486
21
-2.6313082677165354
0
LINE
8
BLACK
6
CONTINUOUS
10
5.1144551181102358
20
-2.6406338188976379
11
5.1021668897637795
21
-2.6516981889763778
0
LINE
8
BLACK
6
CONTINUOUS
10
5.1021668897637795
20
-2.6516981889763778
11
5.0679200787401575
21
-2.6136631889763779
0
LINE
8
BLACK
6
CONTINUOUS
10
5.0679200787401575
20
-2.6136631889763779
11
5.0802083070866138
21
-2.6025988188976377
0
LINE
8
BLACK
6
CONTINUOUS
10
5.0802083070866138
20
-2.6025988188976377
11
5.1144551181102358
21
-2.6406338188976379
0
LINE
8
BLACK
6
CONTINUOUS
10
5.139031614173228
20
-2.6185050393700786
11
5.1267433858267717
21
-2.6295694094488189
0
LINE
8
BLACK
6
CONTINUOUS
10
5.1267433858267717
20
-2.6295694094488189
11
5.0924965748031497
21
-2.5915344094488186
0
LINE
8
BLACK
6
CONTINUOUS
10
5.0924965748031497
20
-2.5915344094488186
11
5.1047848031496059
21
-2.5804700393700788
0
LINE
8
BLACK
6
CONTINUOUS
10
5.1047848031496059
20
-2.5804700393700788
11
5.139031614173228
21
-2.6185050393700786
0
LINE
8
BLACK
6
CONTINUOUS
10
5.1641931889763777
20
-2.5958494488188975
11
5.1519049606299214
21
-2.6069138188976377
0
LINE
8
BLACK
6
CONTINUOUS
10
5.1519049606299214
20
-2.6069138188976377
11
5.1176581496062994
21
-2.5688788188976379
0
LINE
8
BLACK
6
CONTINUOUS
10
5.1176581496062994
20
-2.5688788188976379
11
5.1299463779527557
21
-2.5578144488188976
0
LINE
8
BLACK
6
CONTINUOUS
10
5.1299463779527557
20
-2.5578144488188976
11
5.1641931889763777
21
-2.5958494488188975
0
LINE
8
BLACK
6
CONTINUOUS
10
5.1887696850393699
20
-2.5737206692913386
11
5.1764814566929136
21
-2.5847850393700789
0
LINE
8
BLACK
6
CONTINUOUS
10
5.1764814566929136
20
-2.5847850393700789
11
5.1422346456692916
21
-2.5467500393700786
0
LINE
8
BLACK
6
CONTINUOUS
10
5.1422346456692916
20
-2.5467500393700786
11
5.1545228740157478
21
-2.5356856692913383
0
LINE
8
BLACK
6
CONTINUOUS
10
5.1545228740157478
20
-2.5356856692913383
11
5.1887696850393699
21
-2.5737206692913386
0
LINE
8
BLACK
6
CONTINUOUS
10
5.242668622047244
20
-2.5248453937007875
11
5.2454379921259839
21
-2.5269133858267714
0
LINE
8
BLACK
6
CONTINUOUS
10
5.2454379921259839
20
-2.5269133858267714
11
5.2572926771653545
21
-2.5400793700787401
0
LINE
8
BLACK
6
CONTINUOUS
10
5.2572926771653545
20
-2.5400793700787401
11
5.2590598818897636
21
-2.5430497244094488
0
LINE
8
BLACK
6
CONTINUOUS
10
5.2590598818897636
20
-2.5430497244094488
11
5.2595558267716536
21
-2.5464703149606298
0
LINE
8
BLACK
6
CONTINUOUS
10
5.2595558267716536
20
-2.5464703149606298
11
5.2587050787401575
21
-2.5498202755905512
0
LINE
8
BLACK
6
CONTINUOUS
10
5.2587050787401575
20
-2.5498202755905512
11
5.2566370472440944
21
-2.5525896850393699
0
LINE
8
BLACK
6
CONTINUOUS
10
5.2566370472440944
20
-2.5525896850393699
11
5.2420082283464566
21
-2.565761535433071
0
LINE
8
BLACK
6
CONTINUOUS
10
5.2420082283464566
20
-2.565761535433071
11
5.2390378346456687
21
-2.5675287401574804
0
LINE
8
BLACK
6
CONTINUOUS
10
5.2390378346456687
20
-2.5675287401574804
11
5.2356172834645669
21
-2.56802468503937
0
LINE
8
BLACK
6
CONTINUOUS
10
5.2356172834645669
20
-2.56802468503937
11
5.2322672834645667
21
-2.5671738976377951
0
LINE
8
BLACK
6
CONTINUOUS
10
5.2322672834645667
20
-2.5671738976377951
11
5.2294979133858268
21
-2.5651059055118108
0
LINE
8
BLACK
6
CONTINUOUS
10
5.2294979133858268
20
-2.5651059055118108
11
5.2176432283464562
21
-2.5519399212598426
0
LINE
8
BLACK
6
CONTINUOUS
10
5.2176432283464562
20
-2.5519399212598426
11
5.2158760236220472
21
-2.5489695669291339
0
LINE
8
BLACK
6
CONTINUOUS
10
5.2158760236220472
20
-2.5489695669291339
11
5.2153800787401572
21
-2.5455489763779529
0
LINE
8
BLACK
6
CONTINUOUS
10
5.2153800787401572
20
-2.5455489763779529
11
5.2162308267716533
21
-2.5421990157480314
0
LINE
8
BLACK
6
CONTINUOUS
10
5.2162308267716533
20
-2.5421990157480314
11
5.2182988582677163
21
-2.5394296062992123
0
LINE
8
BLACK
6
CONTINUOUS
10
5.2182988582677163
20
-2.5394296062992123
11
5.2329276771653541
21
-2.5262577559055117
0
LINE
8
BLACK
6
CONTINUOUS
10
5.2329276771653541
20
-2.5262577559055117
11
5.235898070866142
21
-2.5244905511811022
0
LINE
8
BLACK
6
CONTINUOUS
10
5.235898070866142
20
-2.5244905511811022
11
5.2393186220472439
21
-2.5239946062992127
0
LINE
8
BLACK
6
CONTINUOUS
10
5.2393186220472439
20
-2.5239946062992127
11
5.242668622047244
21
-2.5248453937007875
0
LINE
8
BLACK
6
CONTINUOUS
10
5.2018359448818901
20
-2.4794959448818896
11
5.2046053149606299
21
-2.4815639370078739
0
LINE
8
BLACK
6
CONTINUOUS
10
5.2046053149606299
20
-2.4815639370078739
11
5.2164599999999997
21
-2.4947299212598426
0
LINE
8
BLACK
6
CONTINUOUS
10
5.2164599999999997
20
-2.4947299212598426
11
5.2182272047244096
21
-2.4977002755905513
0
LINE
8
BLACK
6
CONTINUOUS
10
5.2182272047244096
20
-2.4977002755905513
11
5.2187231496062987
21
-2.5011208661417323
0
LINE
8
BLACK
6
CONTINUOUS
10
5.2187231496062987
20
-2.5011208661417323
11
5.2178724015748026
21
-2.5044708267716533
0
LINE
8
BLACK
6
CONTINUOUS
10
5.2178724015748026
20
-2.5044708267716533
11
5.2158043700787404
21
-2.5072402362204724
0
LINE
8
BLACK
6
CONTINUOUS
10
5.2158043700787404
20
-2.5072402362204724
11
5.2011755511811026
21
-2.520412086614173
0
LINE
8
BLACK
6
CONTINUOUS
10
5.2011755511811026
20
-2.520412086614173
11
5.1982051574803148
21
-2.5221792913385825
0
LINE
8
BLACK
6
CONTINUOUS
10
5.1982051574803148
20
-2.5221792913385825
11
5.1947846062992129
21
-2.5226752362204725
0
LINE
8
BLACK
6
CONTINUOUS
10
5.1947846062992129
20
-2.5226752362204725
11
5.1914346062992127
21
-2.5218244488188977
0
LINE
8
BLACK
6
CONTINUOUS
10
5.1914346062992127
20
-2.5218244488188977
11
5.1886652362204719
21
-2.5197564566929134
0
LINE
8
BLACK
6
CONTINUOUS
10
5.1886652362204719
20
-2.5197564566929134
11
5.1768105511811022
21
-2.5065904724409447
0
LINE
8
BLACK
6
CONTINUOUS
10
5.1768105511811022
20
-2.5065904724409447
11
5.1750433464566932
21
-2.503620118110236
0
LINE
8
BLACK
6
CONTINUOUS
10
5.1750433464566932
20
-2.503620118110236
11
5.1745474015748032
21
-2.5001995275590549
0
LINE
8
BLACK
6
CONTINUOUS
10
5.1745474015748032
20
-2.5001995275590549
11
5.1753981496062993
21
-2.496849566929134
0
LINE
8
BLACK
6
CONTINUOUS
10
5.1753981496062993
20
-2.496849566929134
11
5.1774661811023623
21
-2.4940801574803149
0
LINE
8
BLACK
6
CONTINUOUS
10
5.1774661811023623
20
-2.4940801574803149
11
5.1920950000000001
21
-2.4809083070866143
0
LINE
8
BLACK
6
CONTINUOUS
10
5.1920950000000001
20
-2.4809083070866143
11
5.1950653937007871
21
-2.4791411023622048
0
LINE
8
BLACK
6
CONTINUOUS
10
5.1950653937007871
20
-2.4791411023622048
11
5.1984859448818899
21
-2.4786451574803148
0
LINE
8
BLACK
6
CONTINUOUS
10
5.1984859448818899
20
-2.4786451574803148
11
5.2018359448818901
21
-2.4794959448818896
0
LINE
8
BLACK
6
CONTINUOUS
10
7.6650297244094485
20
-2.472852598425197
11
7.6815389763779525
21
-2.4835738582677163
0
LINE
8
BLACK
6
CONTINUOUS
10
7.6815389763779525
20
-2.4835738582677163
11
7.6840147637795271
21
-2.4859856692913387
0
LINE
8
BLACK
6
CONTINUOUS
10
7.6840147637795271
20
-2.4859856692913387
11
7.6853791338582678
21
-2.4891612992125984
0
LINE
8
BLACK
6
CONTINUOUS
10
7.6853791338582678
20
-2.4891612992125984
11
7.6854243700787404
21
-2.4926173228346458
0
LINE
8
BLACK
6
CONTINUOUS
10
7.6854243700787404
20
-2.4926173228346458
11
7.6841435826771649
21
-2.4958275984251967
0
LINE
8
BLACK
6
CONTINUOUS
10
7.6841435826771649
20
-2.4958275984251967
11
7.6744944881889765
21
-2.5106859055118109
0
LINE
8
BLACK
6
CONTINUOUS
10
7.6744944881889765
20
-2.5106859055118109
11
7.6720826771653545
21
-2.513161692913386
0
LINE
8
BLACK
6
CONTINUOUS
10
7.6720826771653545
20
-2.513161692913386
11
7.6689070472440939
21
-2.5145260629921258
0
LINE
8
BLACK
6
CONTINUOUS
10
7.6689070472440939
20
-2.5145260629921258
11
7.6654510236220474
21
-2.5145712992125984
0
LINE
8
BLACK
6
CONTINUOUS
10
7.6654510236220474
20
-2.5145712992125984
11
7.662240748031496
21
-2.5132905511811021
0
LINE
8
BLACK
6
CONTINUOUS
10
7.662240748031496
20
-2.5132905511811021
11
7.6457314960629921
21
-2.5025692913385824
0
LINE
8
BLACK
6
CONTINUOUS
10
7.6457314960629921
20
-2.5025692913385824
11
7.6432557086614175
21
-2.5001574803149604
0
LINE
8
BLACK
6
CONTINUOUS
10
7.6432557086614175
20
-2.5001574803149604
11
7.6418913385826768
21
-2.4969818503937007
0
LINE
8
BLACK
6
CONTINUOUS
10
7.6418913385826768
20
-2.4969818503937007
11
7.6418461023622042
21
-2.4935258267716534
0
LINE
8
BLACK
6
CONTINUOUS
10
7.6418461023622042
20
-2.4935258267716534
11
7.6431268897637796
21
-2.4903155511811024
0
LINE
8
BLACK
6
CONTINUOUS
10
7.6431268897637796
20
-2.4903155511811024
11
7.652775984251968
21
-2.4754572440944882
0
LINE
8
BLACK
6
CONTINUOUS
10
7.652775984251968
20
-2.4754572440944882
11
7.65518779527559
21
-2.4729814566929131
0
LINE
8
BLACK
6
CONTINUOUS
10
7.65518779527559
20
-2.4729814566929131
11
7.6583634251968506
21
-2.4716170866141733
0
LINE
8
BLACK
6
CONTINUOUS
10
7.6583634251968506
20
-2.4716170866141733
11
7.6618194488188971
21
-2.4715718503937008
0
LINE
8
BLACK
6
CONTINUOUS
10
7.6618194488188971
20
-2.4715718503937008
11
7.6650297244094485
21
-2.472852598425197
0
LINE
8
BLACK
6
CONTINUOUS
10
7.6982656299212593
20
-2.4216737795275591
11
7.7147748818897632
21
-2.4323950393700788
0
LINE
8
BLACK
6
CONTINUOUS
10
7.7147748818897632
20
-2.4323950393700788
11
7.7172506692913387
21
-2.4348068503937008
0
LINE
8
BLACK
6
CONTINUOUS
10
7.7172506692913387
20
-2.4348068503937008
11
7.7186150393700785
21
-2.4379824803149606
0
LINE
8
BLACK
6
CONTINUOUS
10
7.7186150393700785
20
-2.4379824803149606
11
7.7186602755905511
21
-2.4414385039370079
0
LINE
8
BLACK
6
CONTINUOUS
10
7.7186602755905511
20
-2.4414385039370079
11
7.7173794881889766
21
-2.4446487795275589
0
LINE
8
BLACK
6
CONTINUOUS
10
7.7173794881889766
20
-2.4446487795275589
11
7.7077303937007873
21
-2.4595070866141731
0
LINE
8
BLACK
6
CONTINUOUS
10
7.7077303937007873
20
-2.4595070866141731
11
7.7053185826771653
21
-2.4619828740157481
0
LINE
8
BLACK
6
CONTINUOUS
10
7.7053185826771653
20
-2.4619828740157481
11
7.7021429527559055
21
-2.4633472440944884
0
LINE
8
BLACK
6
CONTINUOUS
10
7.7021429527559055
20
-2.4633472440944884
11
7.6986869291338582
21
-2.4633924803149605
0
LINE
8
BLACK
6
CONTINUOUS
10
7.6986869291338582
20
-2.4633924803149605
11
7.6954766535433068
21
-2.4621117322834647
0
LINE
8
BLACK
6
CONTINUOUS
10
7.6954766535433068
20
-2.4621117322834647
11
7.6789674015748028
21
-2.451390472440945
0
LINE
8
BLACK
6
CONTINUOUS
10
7.6789674015748028
20
-2.451390472440945
11
7.6764916141732282
21
-2.4489786614173226
0
LINE
8
BLACK
6
CONTINUOUS
10
7.6764916141732282
20
-2.4489786614173226
11
7.6751272440944884
21
-2.4458030314960628
0
LINE
8
BLACK
6
CONTINUOUS
10
7.6751272440944884
20
-2.4458030314960628
11
7.6750820078740158
21
-2.4423470078740155
0
LINE
8
BLACK
6
CONTINUOUS
10
7.6750820078740158
20
-2.4423470078740155
11
7.6763627952755904
21
-2.4391367322834645
0
LINE
8
BLACK
6
CONTINUOUS
10
7.6763627952755904
20
-2.4391367322834645
11
7.6860118897637797
21
-2.4242784251968503
0
LINE
8
BLACK
6
CONTINUOUS
10
7.6860118897637797
20
-2.4242784251968503
11
7.6884237007874017
21
-2.4218026377952757
0
LINE
8
BLACK
6
CONTINUOUS
10
7.6884237007874017
20
-2.4218026377952757
11
7.6915993307086614
21
-2.4204382677165355
0
LINE
8
BLACK
6
CONTINUOUS
10
7.6915993307086614
20
-2.4204382677165355
11
7.6950553543307088
21
-2.4203930314960629
0
LINE
8
BLACK
6
CONTINUOUS
10
7.6950553543307088
20
-2.4203930314960629
11
7.6982656299212593
21
-2.4216737795275591
0
LINE
8
BLACK
6
CONTINUOUS
10
7.6521395669291339
20
-2.4102806299212598
11
7.6242643307086615
21
-2.4532047244094488
0
LINE
8
BLACK
6
CONTINUOUS
10
7.6242643307086615
20
-2.4532047244094488
11
7.6103965748031497
21
-2.4441988976377953
0
LINE
8
BLACK
6
CONTINUOUS
10
7.6103965748031497
20
-2.4441988976377953
11
7.6382718110236221
21
-2.4012748031496063
0
LINE
8
BLACK
6
CONTINUOUS
10
7.6382718110236221
20
-2.4012748031496063
11
7.6521395669291339
21
-2.4102806299212598
0
LINE
8
BLACK
6
CONTINUOUS
10
7.6244040157480315
20
-2.3922689763779528
11
7.5965287795275591
21
-2.4351930708661418
0
LINE
8
BLACK
6
CONTINUOUS
10
7.5965287795275591
20
-2.4351930708661418
11
7.5826610236220473
21
-2.4261872440944883
0
LINE
8
BLACK
6
CONTINUOUS
10
7.5826610236220473
20
-2.4261872440944883
11
7.6105362598425197
21
-2.3832631496062993
0
LINE
8
BLACK
6
CONTINUOUS
10
7.6105362598425197
20
-2.3832631496062993
11
7.6244040157480315
21
-2.3922689763779528
0
LINE
8
BLACK
6
CONTINUOUS
10
7.596008031496063
20
-2.3738284251968502
11
7.5681327952755906
21
-2.4167525196850392
0
LINE
8
BLACK
6
CONTINUOUS
10
7.5681327952755906
20
-2.4167525196850392
11
7.5542650393700788
21
-2.4077466929133857
0
LINE
8
BLACK
6
CONTINUOUS
10
7.5542650393700788
20
-2.4077466929133857
11
7.5821402755905511
21
-2.3648225984251967
0
LINE
8
BLACK
6
CONTINUOUS
10
7.5821402755905511
20
-2.3648225984251967
11
7.596008031496063
21
-2.3738284251968502
0
LINE
8
BLACK
6
CONTINUOUS
10
7.5682724803149606
20
-2.3558167716535432
11
7.5403972440944882
21
-2.3987408661417322
0
LINE
8
BLACK
6
CONTINUOUS
10
7.5403972440944882
20
-2.3987408661417322
11
7.5265294881889764
21
-2.3897350393700787
0
LINE
8
BLACK
6
CONTINUOUS
10
7.5265294881889764
20
-2.3897350393700787
11
7.5544047244094488
21
-2.3468109448818897
0
LINE
8
BLACK
6
CONTINUOUS
10
7.5544047244094488
20
-2.3468109448818897
11
7.5682724803149606
21
-2.3558167716535432
0
LINE
8
BLACK
6
CONTINUOUS
10
5.5389883070866137
20
-2.3356409842519685
11
5.5242551181102364
21
-2.3431479133858266
0
LINE
8
BLACK
6
CONTINUOUS
10
5.5242551181102364
20
-2.3431479133858266
11
5.5010194094488192
21
-2.2975452362204725
0
LINE
8
BLACK
6
CONTINUOUS
10
5.5010194094488192
20
-2.2975452362204725
11
5.5157525984251965
21
-2.2900383070866139
0
LINE
8
BLACK
6
CONTINUOUS
10
5.5157525984251965
20
-2.2900383070866139
11
5.5389883070866137
21
-2.3356409842519685
0
LINE
8
BLACK
6
CONTINUOUS
10
5.5684546456692914
20
-2.3206271259842519
11
5.5537214566929132
21
-2.32813405511811
0
LINE
8
BLACK
6
CONTINUOUS
10
5.5537214566929132
20
-2.32813405511811
11
5.530485748031496
21
-2.2825313779527558
0
LINE
8
BLACK
6
CONTINUOUS
10
5.530485748031496
20
-2.2825313779527558
11
5.5452189370078742
21
-2.2750244488188978
0
LINE
8
BLACK
6
CONTINUOUS
10
5.5452189370078742
20
-2.2750244488188978
11
5.5684546456692914
21
-2.3206271259842519
0
LINE
8
BLACK
6
CONTINUOUS
10
5.5986225984251972
20
-2.3052557874015749
11
5.583889409448819
21
-2.312762716535433
0
LINE
8
BLACK
6
CONTINUOUS
10
5.583889409448819
20
-2.312762716535433
11
5.5606537007874017
21
-2.2671600393700788
0
LINE
8
BLACK
6
CONTINUOUS
10
5.5606537007874017
20
-2.2671600393700788
11
5.5753868897637791
21
-2.2596531102362203
0
LINE
8
BLACK
6
CONTINUOUS
10
5.5753868897637791
20
-2.2596531102362203
11
5.5986225984251972
21
-2.3052557874015749
0
LINE
8
BLACK
6
CONTINUOUS
10
5.6280889370078739
20
-2.2902419291338583
11
5.6133557480314957
21
-2.2977488582677164
0
LINE
8
BLACK
6
CONTINUOUS
10
5.6133557480314957
20
-2.2977488582677164
11
5.5901200393700785
21
-2.2521461811023622
0
LINE
8
BLACK
6
CONTINUOUS
10
5.5901200393700785
20
-2.2521461811023622
11
5.6048532283464567
21
-2.2446392519685037
0
LINE
8
BLACK
6
CONTINUOUS
10
5.6048532283464567
20
-2.2446392519685037
11
5.6280889370078739
21
-2.2902419291338583
0
LINE
8
BLACK
6
CONTINUOUS
10
5.6897855905511809
20
-2.2552932677165356
11
5.6928012204724405
21
-2.256982086614173
0
LINE
8
BLACK
6
CONTINUOUS
10
5.6928012204724405
20
-2.256982086614173
11
5.6949409842519687
21
-2.2596964173228344
0
LINE
8
BLACK
6
CONTINUOUS
10
5.6949409842519687
20
-2.2596964173228344
11
5.7029841338582674
21
-2.2754819685039371
0
LINE
8
BLACK
6
CONTINUOUS
10
5.7029841338582674
20
-2.2754819685039371
11
5.7039223228346456
21
-2.2788085433070866
0
LINE
8
BLACK
6
CONTINUOUS
10
5.7039223228346456
20
-2.2788085433070866
11
5.7035160629921258
21
-2.2822409055118111
0
LINE
8
BLACK
6
CONTINUOUS
10
5.7035160629921258
20
-2.2822409055118111
11
5.7018272440944884
21
-2.2852565354330707
0
LINE
8
BLACK
6
CONTINUOUS
10
5.7018272440944884
20
-2.2852565354330707
11
5.6991129133858269
21
-2.2873962992125985
0
LINE
8
BLACK
6
CONTINUOUS
10
5.6991129133858269
20
-2.2873962992125985
11
5.6815734251968504
21
-2.2963331496062991
0
LINE
8
BLACK
6
CONTINUOUS
10
5.6815734251968504
20
-2.2963331496062991
11
5.6782468503937009
21
-2.2972713385826773
0
LINE
8
BLACK
6
CONTINUOUS
10
5.6782468503937009
20
-2.2972713385826773
11
5.6748144881889759
21
-2.2968650787401574
0
LINE
8
BLACK
6
CONTINUOUS
10
5.6748144881889759
20
-2.2968650787401574
11
5.6717988582677163
21
-2.2951762598425196
0
LINE
8
BLACK
6
CONTINUOUS
10
5.6717988582677163
20
-2.2951762598425196
11
5.6696590944881891
21
-2.2924619291338582
0
LINE
8
BLACK
6
CONTINUOUS
10
5.6696590944881891
20
-2.2924619291338582
11
5.6616159448818895
21
-2.2766763779527559
0
LINE
8
BLACK
6
CONTINUOUS
10
5.6616159448818895
20
-2.2766763779527559
11
5.6606777559055113
21
-2.2733498031496064
0
LINE
8
BLACK
6
CONTINUOUS
10
5.6606777559055113
20
-2.2733498031496064
11
5.6610840157480311
21
-2.2699174409448819
0
LINE
8
BLACK
6
CONTINUOUS
10
5.6610840157480311
20
-2.2699174409448819
11
5.6627728346456694
21
-2.2669018110236219
0
LINE
8
BLACK
6
CONTINUOUS
10
5.6627728346456694
20
-2.2669018110236219
11
5.6654871653543308
21
-2.2647620472440946
0
LINE
8
BLACK
6
CONTINUOUS
10
5.6654871653543308
20
-2.2647620472440946
11
5.6830266535433074
21
-2.2558251968503935
0
LINE
8
BLACK
6
CONTINUOUS
10
5.6830266535433074
20
-2.2558251968503935
11
5.6863532283464568
21
-2.2548870078740157
0
LINE
8
BLACK
6
CONTINUOUS
10
5.6863532283464568
20
-2.2548870078740157
11
5.6897855905511809
21
-2.2552932677165356
0
LINE
8
BLACK
6
CONTINUOUS
10
7.2035664960629919
20
-2.2229099212598427
11
7.2222880708661412
21
-2.2289929527559056
0
LINE
8
BLACK
6
CONTINUOUS
10
7.2222880708661412
20
-2.2289929527559056
11
7.2253037007874017
21
-2.2306817716535434
0
LINE
8
BLACK
6
CONTINUOUS
10
7.2253037007874017
20
-2.2306817716535434
11
7.227443464566929
21
-2.2333961023622049
0
LINE
8
BLACK
6
CONTINUOUS
10
7.227443464566929
20
-2.2333961023622049
11
7.2283816929133859
21
-2.2367226377952756
0
LINE
8
BLACK
6
CONTINUOUS
10
7.2283816929133859
20
-2.2367226377952756
11
7.2279754330708661
21
-2.2401550000000001
0
LINE
8
BLACK
6
CONTINUOUS
10
7.2279754330708661
20
-2.2401550000000001
11
7.2225007086614168
21
-2.2570044488188974
0
LINE
8
BLACK
6
CONTINUOUS
10
7.2225007086614168
20
-2.2570044488188974
11
7.2208118897637794
21
-2.2600200787401574
0
LINE
8
BLACK
6
CONTINUOUS
10
7.2208118897637794
20
-2.2600200787401574
11
7.218097559055118
21
-2.2621598425196852
0
LINE
8
BLACK
6
CONTINUOUS
10
7.218097559055118
20
-2.2621598425196852
11
7.2147710236220473
21
-2.2630980708661417
0
LINE
8
BLACK
6
CONTINUOUS
10
7.2147710236220473
20
-2.2630980708661417
11
7.2113386220472435
21
-2.2626918110236218
0
LINE
8
BLACK
6
CONTINUOUS
10
7.2113386220472435
20
-2.2626918110236218
11
7.1926170472440942
21
-2.2566087795275589
0
LINE
8
BLACK
6
CONTINUOUS
10
7.1926170472440942
20
-2.2566087795275589
11
7.1896014173228346
21
-2.2549199606299211
0
LINE
8
BLACK
6
CONTINUOUS
10
7.1896014173228346
20
-2.2549199606299211
11
7.1874616535433073
21
-2.2522056299212596
0
LINE
8
BLACK
6
CONTINUOUS
10
7.1874616535433073
20
-2.2522056299212596
11
7.1865234251968504
21
-2.2488790944881889
0
LINE
8
BLACK
6
CONTINUOUS
10
7.1865234251968504
20
-2.2488790944881889
11
7.1869296850393702
21
-2.2454467322834644
0
LINE
8
BLACK
6
CONTINUOUS
10
7.1869296850393702
20
-2.2454467322834644
11
7.1924044094488186
21
-2.2285972834645671
0
LINE
8
BLACK
6
CONTINUOUS
10
7.1924044094488186
20
-2.2285972834645671
11
7.1940932283464569
21
-2.2255816535433071
0
LINE
8
BLACK
6
CONTINUOUS
10
7.1940932283464569
20
-2.2255816535433071
11
7.1968075590551184
21
-2.2234418897637793
0
LINE
8
BLACK
6
CONTINUOUS
10
7.1968075590551184
20
-2.2234418897637793
11
7.2001340944881891
21
-2.2225036614173228
0
LINE
8
BLACK
6
CONTINUOUS
10
7.2001340944881891
20
-2.2225036614173228
11
7.2035664960629919
21
-2.2229099212598427
0
LINE
8
BLACK
6
CONTINUOUS
10
5.6620814960629922
20
-2.2009207480314958
11
5.6650971259842517
21
-2.2026095669291337
0
LINE
8
BLACK
6
CONTINUOUS
10
5.6650971259842517
20
-2.2026095669291337
11
5.667236889763779
21
-2.2053238976377951
0
LINE
8
BLACK
6
CONTINUOUS
10
5.667236889763779
20
-2.2053238976377951
11
5.6752800393700786
21
-2.2211094488188974
0
LINE
8
BLACK
6
CONTINUOUS
10
5.6752800393700786
20
-2.2211094488188974
11
5.6762182283464568
21
-2.2244360236220473
0
LINE
8
BLACK
6
CONTINUOUS
10
5.6762182283464568
20
-2.2244360236220473
11
5.675811968503937
21
-2.2278683858267718
0
LINE
8
BLACK
6
CONTINUOUS
10
5.675811968503937
20
-2.2278683858267718
11
5.6741231496062987
21
-2.2308840157480314
0
LINE
8
BLACK
6
CONTINUOUS
10
5.6741231496062987
20
-2.2308840157480314
11
5.6714088188976373
21
-2.2330237795275591
0
LINE
8
BLACK
6
CONTINUOUS
10
5.6714088188976373
20
-2.2330237795275591
11
5.6538693307086616
21
-2.2419606299212598
0
LINE
8
BLACK
6
CONTINUOUS
10
5.6538693307086616
20
-2.2419606299212598
11
5.6505427559055112
21
-2.2428988188976375
0
LINE
8
BLACK
6
CONTINUOUS
10
5.6505427559055112
20
-2.2428988188976375
11
5.6471103937007872
21
-2.2424925590551181
0
LINE
8
BLACK
6
CONTINUOUS
10
5.6471103937007872
20
-2.2424925590551181
11
5.6440947637795276
21
-2.2408037401574803
0
LINE
8
BLACK
6
CONTINUOUS
10
5.6440947637795276
20
-2.2408037401574803
11
5.6419550000000003
21
-2.2380894094488188
0
LINE
8
BLACK
6
CONTINUOUS
10
5.6419550000000003
20
-2.2380894094488188
11
5.6339118503937007
21
-2.2223038582677166
0
LINE
8
BLACK
6
CONTINUOUS
10
5.6339118503937007
20
-2.2223038582677166
11
5.6329736614173225
21
-2.2189772834645667
0
LINE
8
BLACK
6
CONTINUOUS
10
5.6329736614173225
20
-2.2189772834645667
11
5.6333799212598423
21
-2.2155449212598426
0
LINE
8
BLACK
6
CONTINUOUS
10
5.6333799212598423
20
-2.2155449212598426
11
5.6350687401574806
21
-2.2125292913385826
0
LINE
8
BLACK
6
CONTINUOUS
10
5.6350687401574806
20
-2.2125292913385826
11
5.6377830708661412
21
-2.2103895275590553
0
LINE
8
BLACK
6
CONTINUOUS
10
5.6377830708661412
20
-2.2103895275590553
11
5.6553225590551177
21
-2.2014526771653542
0
LINE
8
BLACK
6
CONTINUOUS
10
5.6553225590551177
20
-2.2014526771653542
11
5.6586491338582672
21
-2.2005144881889764
0
LINE
8
BLACK
6
CONTINUOUS
10
5.6586491338582672
20
-2.2005144881889764
11
5.6620814960629922
21
-2.2009207480314958
0
LINE
8
BLACK
6
CONTINUOUS
10
7.1749207874015744
20
-2.1658064173228344
11
7.1591049606299215
21
-2.2144825196850393
0
LINE
8
BLACK
6
CONTINUOUS
10
7.1591049606299215
20
-2.2144825196850393
11
7.1433788188976379
21
-2.2093727952755904
0
LINE
8
BLACK
6
CONTINUOUS
10
7.1433788188976379
20
-2.2093727952755904
11
7.1591946456692908
21
-2.160696692913386
0
LINE
8
BLACK
6
CONTINUOUS
10
7.1591946456692908
20
-2.160696692913386
11
7.1749207874015744
21
-2.1658064173228344
0
LINE
8
BLACK
6
CONTINUOUS
10
7.2224238188976377
20
-2.1648729921259844
11
7.241145393700787
21
-2.1709560236220473
0
LINE
8
BLACK
6
CONTINUOUS
10
7.241145393700787
20
-2.1709560236220473
11
7.2441610236220475
21
-2.1726448425196851
0
LINE
8
BLACK
6
CONTINUOUS
10
7.2441610236220475
20
-2.1726448425196851
11
7.2463007874015748
21
-2.1753591732283466
0
LINE
8
BLACK
6
CONTINUOUS
10
7.2463007874015748
20
-2.1753591732283466
11
7.2472390157480318
21
-2.1786857086614173
0
LINE
8
BLACK
6
CONTINUOUS
10
7.2472390157480318
20
-2.1786857086614173
11
7.2468327559055119
21
-2.1821180708661418
0
LINE
8
BLACK
6
CONTINUOUS
10
7.2468327559055119
20
-2.1821180708661418
11
7.2413580314960626
21
-2.1989675196850391
0
LINE
8
BLACK
6
CONTINUOUS
10
7.2413580314960626
20
-2.1989675196850391
11
7.2396692125984252
21
-2.2019831496062992
0
LINE
8
BLACK
6
CONTINUOUS
10
7.2396692125984252
20
-2.2019831496062992
11
7.2369548818897638
21
-2.2041229133858269
0
LINE
8
BLACK
6
CONTINUOUS
10
7.2369548818897638
20
-2.2041229133858269
11
7.2336283464566931
21
-2.2050611417322834
0
LINE
8
BLACK
6
CONTINUOUS
10
7.2336283464566931
20
-2.2050611417322834
11
7.2301959448818893
21
-2.2046548818897636
0
LINE
8
BLACK
6
CONTINUOUS
10
7.2301959448818893
20
-2.2046548818897636
11
7.21147437007874
21
-2.1985718503937006
0
LINE
8
BLACK
6
CONTINUOUS
10
7.21147437007874
20
-2.1985718503937006
11
7.2084587401574804
21
-2.1968830314960628
0
LINE
8
BLACK
6
CONTINUOUS
10
7.2084587401574804
20
-2.1968830314960628
11
7.2063189763779523
21
-2.1941687007874013
0
LINE
8
BLACK
6
CONTINUOUS
10
7.2063189763779523
20
-2.1941687007874013
11
7.2053807480314962
21
-2.1908421653543306
0
LINE
8
BLACK
6
CONTINUOUS
10
7.2053807480314962
20
-2.1908421653543306
11
7.2057870078740152
21
-2.1874098031496061
0
LINE
8
BLACK
6
CONTINUOUS
10
7.2057870078740152
20
-2.1874098031496061
11
7.2112617322834645
21
-2.1705603543307088
0
LINE
8
BLACK
6
CONTINUOUS
10
7.2112617322834645
20
-2.1705603543307088
11
7.2129505511811018
21
-2.1675447244094488
0
LINE
8
BLACK
6
CONTINUOUS
10
7.2129505511811018
20
-2.1675447244094488
11
7.2156648818897633
21
-2.165404960629921
0
LINE
8
BLACK
6
CONTINUOUS
10
7.2156648818897633
20
-2.165404960629921
11
7.2189914173228349
21
-2.1644667322834645
0
LINE
8
BLACK
6
CONTINUOUS
10
7.2189914173228349
20
-2.1644667322834645
11
7.2224238188976377
21
-2.1648729921259844
0
LINE
8
BLACK
6
CONTINUOUS
10
7.1434684645669293
20
-2.1555869291338583
11
7.1276526377952756
21
-2.2042630314960627
0
LINE
8
BLACK
6
CONTINUOUS
10
7.1276526377952756
20
-2.2042630314960627
11
7.111926496062992
21
-2.1991533070866143
0
LINE
8
BLACK
6
CONTINUOUS
10
7.111926496062992
20
-2.1991533070866143
11
7.1277423228346457
21
-2.1504772047244094
0
LINE
8
BLACK
6
CONTINUOUS
10
7.1277423228346457
20
-2.1504772047244094
11
7.1434684645669293
21
-2.1555869291338583
0
LINE
8
BLACK
6
CONTINUOUS
10
7.1112673622047247
20
-2.1451241732283464
11
7.0954515354330709
21
-2.1938002755905512
0
LINE
8
BLACK
6
CONTINUOUS
10
7.0954515354330709
20
-2.1938002755905512
11
7.0797253937007874
21
-2.1886905511811023
0
LINE
8
BLACK
6
CONTINUOUS
10
7.0797253937007874
20
-2.1886905511811023
11
7.0955412204724411
21
-2.1400144488188975
0
LINE
8
BLACK
6
CONTINUOUS
10
7.0955412204724411
20
-2.1400144488188975
11
7.1112673622047247
21
-2.1451241732283464
0
LINE
8
BLACK
6
CONTINUOUS
10
7.0798150393700787
20
-2.1349046850393698
11
7.063999212598425
21
-2.1835807874015747
0
LINE
8
BLACK
6
CONTINUOUS
10
7.063999212598425
20
-2.1835807874015747
11
7.0482730708661414
21
-2.1784710629921258
0
LINE
8
BLACK
6
CONTINUOUS
10
7.0482730708661414
20
-2.1784710629921258
11
7.0640888976377951
21
-2.1297949606299214
0
LINE
8
BLACK
6
CONTINUOUS
10
7.0640888976377951
20
-2.1297949606299214
11
7.0798150393700787
21
-2.1349046850393698
0
LINE
8
BLACK
6
CONTINUOUS
10
6.0279937795275593
20
-2.150917874015748
11
6.0118196850393701
21
-2.1543557874015749
0
LINE
8
BLACK
6
CONTINUOUS
10
6.0118196850393701
20
-2.1543557874015749
11
6.001178503937008
21
-2.1042931496062991
0
LINE
8
BLACK
6
CONTINUOUS
10
6.001178503937008
20
-2.1042931496062991
11
6.0173525984251963
21
-2.1008552362204722
0
LINE
8
BLACK
6
CONTINUOUS
10
6.0173525984251963
20
-2.1008552362204722
11
6.0279937795275593
21
-2.150917874015748
0
LINE
8
BLACK
6
CONTINUOUS
10
6.1944482677165356
20
-2.1123371653543308
11
6.1969240157480314
21
-2.114748937007874
0
LINE
8
BLACK
6
CONTINUOUS
10
6.1969240157480314
20
-2.114748937007874
11
6.1982883858267712
21
-2.1179246062992125
0
LINE
8
BLACK
6
CONTINUOUS
10
6.1982883858267712
20
-2.1179246062992125
11
6.2019718503937007
21
-2.1352539763779528
0
LINE
8
BLACK
6
CONTINUOUS
10
6.2019718503937007
20
-2.1352539763779528
11
6.202017125984252
21
-2.1387100000000001
0
LINE
8
BLACK
6
CONTINUOUS
10
6.202017125984252
20
-2.1387100000000001
11
6.2007363385826766
21
-2.1419202755905511
0
LINE
8
BLACK
6
CONTINUOUS
10
6.2007363385826766
20
-2.1419202755905511
11
6.1983245669291334
21
-2.1443960629921262
0
LINE
8
BLACK
6
CONTINUOUS
10
6.1983245669291334
20
-2.1443960629921262
11
6.1951488976377949
21
-2.1457603937007872
0
LINE
8
BLACK
6
CONTINUOUS
10
6.1951488976377949
20
-2.1457603937007872
11
6.1758940157480318
21
-2.1498531496062991
0
LINE
8
BLACK
6
CONTINUOUS
10
6.1758940157480318
20
-2.1498531496062991
11
6.1724379921259844
21
-2.1498984251968505
0
LINE
8
BLACK
6
CONTINUOUS
10
6.1724379921259844
20
-2.1498984251968505
11
6.169227716535433
21
-2.1486176377952755
0
LINE
8
BLACK
6
CONTINUOUS
10
6.169227716535433
20
-2.1486176377952755
11
6.1667519685039371
21
-2.1462058661417323
0
LINE
8
BLACK
6
CONTINUOUS
10
6.1667519685039371
20
-2.1462058661417323
11
6.1653875984251965
21
-2.1430301968503938
0
LINE
8
BLACK
6
CONTINUOUS
10
6.1653875984251965
20
-2.1430301968503938
11
6.1617041338582679
21
-2.1257008267716535
0
LINE
8
BLACK
6
CONTINUOUS
10
6.1617041338582679
20
-2.1257008267716535
11
6.1616588582677165
21
-2.1222448031496062
0
LINE
8
BLACK
6
CONTINUOUS
10
6.1616588582677165
20
-2.1222448031496062
11
6.1629396456692911
21
-2.1190345275590552
0
LINE
8
BLACK
6
CONTINUOUS
10
6.1629396456692911
20
-2.1190345275590552
11
6.1653514173228343
21
-2.1165587401574801
0
LINE
8
BLACK
6
CONTINUOUS
10
6.1653514173228343
20
-2.1165587401574801
11
6.1685270866141728
21
-2.1151944094488186
0
LINE
8
BLACK
6
CONTINUOUS
10
6.1685270866141728
20
-2.1151944094488186
11
6.1877819685039368
21
-2.1111016535433071
0
LINE
8
BLACK
6
CONTINUOUS
10
6.1877819685039368
20
-2.1111016535433071
11
6.1912379921259841
21
-2.1110563779527558
0
LINE
8
BLACK
6
CONTINUOUS
10
6.1912379921259841
20
-2.1110563779527558
11
6.1944482677165356
21
-2.1123371653543308
0
LINE
8
BLACK
6
CONTINUOUS
10
6.0603419685039368
20
-2.1440420472440946
11
6.0441678740157476
21
-2.1474799606299211
0
LINE
8
BLACK
6
CONTINUOUS
10
6.0441678740157476
20
-2.1474799606299211
11
6.0335266929133855
21
-2.0974173228346458
0
LINE
8
BLACK
6
CONTINUOUS
10
6.0335266929133855
20
-2.0974173228346458
11
6.0497007874015747
21
-2.0939794094488189
0
LINE
8
BLACK
6
CONTINUOUS
10
6.0497007874015747
20
-2.0939794094488189
11
6.0603419685039368
21
-2.1440420472440946
0
LINE
8
BLACK
6
CONTINUOUS
10
6.0934603149606295
20
-2.1370025196850393
11
6.0772862204724412
21
-2.1404404330708662
0
LINE
8
BLACK
6
CONTINUOUS
10
6.0772862204724412
20
-2.1404404330708662
11
6.066645039370079
21
-2.0903777952755904
0
LINE
8
BLACK
6
CONTINUOUS
10
6.066645039370079
20
-2.0903777952755904
11
6.0828191338582673
21
-2.0869398818897635
0
LINE
8
BLACK
6
CONTINUOUS
10
6.0828191338582673
20
-2.0869398818897635
11
6.0934603149606295
21
-2.1370025196850393
0
LINE
8
BLACK
6
CONTINUOUS
10
6.7127953543307086
20
-2.1019496062992125
11
6.7161453149606301
21
-2.1028003937007873
0
LINE
8
BLACK
6
CONTINUOUS
10
6.7161453149606301
20
-2.1028003937007873
11
6.7189147244094487
21
-2.1048683858267716
0
LINE
8
BLACK
6
CONTINUOUS
10
6.7189147244094487
20
-2.1048683858267716
11
6.720681889763779
21
-2.107838779527559
0
LINE
8
BLACK
6
CONTINUOUS
10
6.720681889763779
20
-2.107838779527559
11
6.7211778740157477
21
-2.1112593307086613
0
LINE
8
BLACK
6
CONTINUOUS
10
6.7211778740157477
20
-2.1112593307086613
11
6.7202506299212601
21
-2.1289515748031493
0
LINE
8
BLACK
6
CONTINUOUS
10
6.7202506299212601
20
-2.1289515748031493
11
6.719399881889764
21
-2.1323015748031495
0
LINE
8
BLACK
6
CONTINUOUS
10
6.719399881889764
20
-2.1323015748031495
11
6.717331850393701
21
-2.1350709448818899
0
LINE
8
BLACK
6
CONTINUOUS
10
6.717331850393701
20
-2.1350709448818899
11
6.7143614960629918
21
-2.1368381496062994
0
LINE
8
BLACK
6
CONTINUOUS
10
6.7143614960629918
20
-2.1368381496062994
11
6.7109409055118112
21
-2.1373340944881889
0
LINE
8
BLACK
6
CONTINUOUS
10
6.7109409055118112
20
-2.1373340944881889
11
6.6912828346456692
21
-2.1363038582677163
0
LINE
8
BLACK
6
CONTINUOUS
10
6.6912828346456692
20
-2.1363038582677163
11
6.6879328740157478
21
-2.1354530708661419
0
LINE
8
BLACK
6
CONTINUOUS
10
6.6879328740157478
20
-2.1354530708661419
11
6.6851634645669291
21
-2.1333850787401576
0
LINE
8
BLACK
6
CONTINUOUS
10
6.6851634645669291
20
-2.1333850787401576
11
6.6833962992125979
21
-2.1304146850393701
0
LINE
8
BLACK
6
CONTINUOUS
10
6.6833962992125979
20
-2.1304146850393701
11
6.6829003149606301
21
-2.1269941338582679
0
LINE
8
BLACK
6
CONTINUOUS
10
6.6829003149606301
20
-2.1269941338582679
11
6.6838275590551177
21
-2.1093018897637794
0
LINE
8
BLACK
6
CONTINUOUS
10
6.6838275590551177
20
-2.1093018897637794
11
6.6846783070866138
21
-2.1059518897637797
0
LINE
8
BLACK
6
CONTINUOUS
10
6.6846783070866138
20
-2.1059518897637797
11
6.6867463385826769
21
-2.1031825196850393
0
LINE
8
BLACK
6
CONTINUOUS
10
6.6867463385826769
20
-2.1031825196850393
11
6.689716692913386
21
-2.1014153149606298
0
LINE
8
BLACK
6
CONTINUOUS
10
6.689716692913386
20
-2.1014153149606298
11
6.6931372834645666
21
-2.1009193700787403
0
LINE
8
BLACK
6
CONTINUOUS
10
6.6931372834645666
20
-2.1009193700787403
11
6.7127953543307086
21
-2.1019496062992125
0
LINE
8
BLACK
6
CONTINUOUS
10
6.1258085039370078
20
-2.130126692913386
11
6.1096344094488186
21
-2.1335646062992124
0
LINE
8
BLACK
6
CONTINUOUS
10
6.1096344094488186
20
-2.1335646062992124
11
6.0989932283464565
21
-2.0835019685039371
0
LINE
8
BLACK
6
CONTINUOUS
10
6.0989932283464565
20
-2.0835019685039371
11
6.1151673228346457
21
-2.0800640551181102
0
LINE
8
BLACK
6
CONTINUOUS
10
6.1151673228346457
20
-2.0800640551181102
11
6.1258085039370078
21
-2.130126692913386
0
LINE
8
BLACK
6
CONTINUOUS
10
6.6506882283464561
20
-2.05317562992126
11
6.6480096062992127
21
-2.1042866141732284
0
LINE
8
BLACK
6
CONTINUOUS
10
6.6480096062992127
20
-2.1042866141732284
11
6.6314968110236219
21
-2.1034212204724407
0
LINE
8
BLACK
6
CONTINUOUS
10
6.6314968110236219
20
-2.1034212204724407
11
6.6341754330708662
21
-2.0523102362204724
0
LINE
8
BLACK
6
CONTINUOUS
10
6.6341754330708662
20
-2.0523102362204724
11
6.6506882283464561
21
-2.05317562992126
0
LINE
8
BLACK
6
CONTINUOUS
10
6.6176626377952754
20
-2.0514448425196852
11
6.6149840157480311
21
-2.1025558267716535
0
LINE
8
BLACK
6
CONTINUOUS
10
6.6149840157480311
20
-2.1025558267716535
11
6.5984712204724412
21
-2.1016904330708659
0
LINE
8
BLACK
6
CONTINUOUS
10
6.5984712204724412
20
-2.1016904330708659
11
6.6011498425196846
21
-2.0505794488188975
0
LINE
8
BLACK
6
CONTINUOUS
10
6.6011498425196846
20
-2.0505794488188975
11
6.6176626377952754
21
-2.0514448425196852
0
LINE
8
BLACK
6
CONTINUOUS
10
6.5838506692913388
20
-2.0496727952755904
11
6.5811720472440944
21
-2.1007837795275588
0
LINE
8
BLACK
6
CONTINUOUS
10
6.5811720472440944
20
-2.1007837795275588
11
6.5646592519685036
21
-2.0999183858267716
0
LINE
8
BLACK
6
CONTINUOUS
10
6.5646592519685036
20
-2.0999183858267716
11
6.567337874015748
21
-2.0488074015748032
0
LINE
8
BLACK
6
CONTINUOUS
10
6.567337874015748
20
-2.0488074015748032
11
6.5838506692913388
21
-2.0496727952755904
0
LINE
8
BLACK
6
CONTINUOUS
10
6.5508250787401572
20
-2.0479420078740156
11
6.5481464566929128
21
-2.0990529921259844
0
LINE
8
BLACK
6
CONTINUOUS
10
6.5481464566929128
20
-2.0990529921259844
11
6.5316336614173229
21
-2.0981875984251968
0
LINE
8
BLACK
6
CONTINUOUS
10
6.5316336614173229
20
-2.0981875984251968
11
6.5343122834645664
21
-2.0470766141732284
0
LINE
8
BLACK
6
CONTINUOUS
10
6.5343122834645664
20
-2.0470766141732284
11
6.5508250787401572
21
-2.0479420078740156
0
LINE
8
BLACK
6
CONTINUOUS
10
6.1817607086614172
20
-2.052646929133858
11
6.1842364566929131
21
-2.0550587007874017
0
LINE
8
BLACK
6
CONTINUOUS
10
6.1842364566929131
20
-2.0550587007874017
11
6.1856008267716538
21
-2.0582343700787402
0
LINE
8
BLACK
6
CONTINUOUS
10
6.1856008267716538
20
-2.0582343700787402
11
6.1892842913385824
21
-2.0755637401574805
0
LINE
8
BLACK
6
CONTINUOUS
10
6.1892842913385824
20
-2.0755637401574805
11
6.1893295669291337
21
-2.0790197637795274
0
LINE
8
BLACK
6
CONTINUOUS
10
6.1893295669291337
20
-2.0790197637795274
11
6.1880487795275592
21
-2.0822300393700788
0
LINE
8
BLACK
6
CONTINUOUS
10
6.1880487795275592
20
-2.0822300393700788
11
6.1856370078740159
21
-2.0847058267716534
0
LINE
8
BLACK
6
CONTINUOUS
10
6.1856370078740159
20
-2.0847058267716534
11
6.1824613385826774
21
-2.0860701574803149
0
LINE
8
BLACK
6
CONTINUOUS
10
6.1824613385826774
20
-2.0860701574803149
11
6.1632064566929134
21
-2.0901629133858268
0
LINE
8
BLACK
6
CONTINUOUS
10
6.1632064566929134
20
-2.0901629133858268
11
6.1597504330708661
21
-2.0902081889763777
0
LINE
8
BLACK
6
CONTINUOUS
10
6.1597504330708661
20
-2.0902081889763777
11
6.1565401574803147
21
-2.0889274015748032
0
LINE
8
BLACK
6
CONTINUOUS
10
6.1565401574803147
20
-2.0889274015748032
11
6.1540644094488188
21
-2.0865156299212599
0
LINE
8
BLACK
6
CONTINUOUS
10
6.1540644094488188
20
-2.0865156299212599
11
6.152700039370079
21
-2.083339960629921
0
LINE
8
BLACK
6
CONTINUOUS
10
6.152700039370079
20
-2.083339960629921
11
6.1490165748031496
21
-2.0660105905511812
0
LINE
8
BLACK
6
CONTINUOUS
10
6.1490165748031496
20
-2.0660105905511812
11
6.1489712992125982
21
-2.0625545669291339
0
LINE
8
BLACK
6
CONTINUOUS
10
6.1489712992125982
20
-2.0625545669291339
11
6.1502520866141728
21
-2.0593442913385824
0
LINE
8
BLACK
6
CONTINUOUS
10
6.1502520866141728
20
-2.0593442913385824
11
6.152663858267716
21
-2.0568685039370078
0
LINE
8
BLACK
6
CONTINUOUS
10
6.152663858267716
20
-2.0568685039370078
11
6.1558395275590554
21
-2.0555041732283463
0
LINE
8
BLACK
6
CONTINUOUS
10
6.1558395275590554
20
-2.0555041732283463
11
6.1750944094488185
21
-2.0514114173228344
0
LINE
8
BLACK
6
CONTINUOUS
10
6.1750944094488185
20
-2.0514114173228344
11
6.1785504330708658
21
-2.0513661417322835
0
LINE
8
BLACK
6
CONTINUOUS
10
6.1785504330708658
20
-2.0513661417322835
11
6.1817607086614172
21
-2.052646929133858
0
LINE
8
BLACK
6
CONTINUOUS
10
6.7159890551181105
20
-2.0410096062992125
11
6.7193390157480311
21
-2.0418603937007873
0
LINE
8
BLACK
6
CONTINUOUS
10
6.7193390157480311
20
-2.0418603937007873
11
6.7221084251968506
21
-2.0439283858267716
0
LINE
8
BLACK
6
CONTINUOUS
10
6.7221084251968506
20
-2.0439283858267716
11
6.7238755905511809
21
-2.0468987795275591
0
LINE
8
BLACK
6
CONTINUOUS
10
6.7238755905511809
20
-2.0468987795275591
11
6.7243715748031496
21
-2.0503193307086613
0
LINE
8
BLACK
6
CONTINUOUS
10
6.7243715748031496
20
-2.0503193307086613
11
6.7234443307086611
21
-2.0680115748031493
0
LINE
8
BLACK
6
CONTINUOUS
10
6.7234443307086611
20
-2.0680115748031493
11
6.722593582677165
21
-2.0713615748031495
0
LINE
8
BLACK
6
CONTINUOUS
10
6.722593582677165
20
-2.0713615748031495
11
6.720525551181102
21
-2.0741309448818899
0
LINE
8
BLACK
6
CONTINUOUS
10
6.720525551181102
20
-2.0741309448818899
11
6.7175551968503937
21
-2.0758981496062994
0
LINE
8
BLACK
6
CONTINUOUS
10
6.7175551968503937
20
-2.0758981496062994
11
6.7141346062992122
21
-2.0763940944881889
0
LINE
8
BLACK
6
CONTINUOUS
10
6.7141346062992122
20
-2.0763940944881889
11
6.6944765354330711
21
-2.0753638582677163
0
LINE
8
BLACK
6
CONTINUOUS
10
6.6944765354330711
20
-2.0753638582677163
11
6.6911265748031497
21
-2.0745130708661419
0
LINE
8
BLACK
6
CONTINUOUS
10
6.6911265748031497
20
-2.0745130708661419
11
6.6883571653543301
21
-2.0724450787401576
0
LINE
8
BLACK
6
CONTINUOUS
10
6.6883571653543301
20
-2.0724450787401576
11
6.6865899999999998
21
-2.0694746850393702
0
LINE
8
BLACK
6
CONTINUOUS
10
6.6865899999999998
20
-2.0694746850393702
11
6.6860940157480311
21
-2.0660541338582679
0
LINE
8
BLACK
6
CONTINUOUS
10
6.6860940157480311
20
-2.0660541338582679
11
6.6870212598425196
21
-2.0483618897637794
0
LINE
8
BLACK
6
CONTINUOUS
10
6.6870212598425196
20
-2.0483618897637794
11
6.6878720078740157
21
-2.0450118897637797
0
LINE
8
BLACK
6
CONTINUOUS
10
6.6878720078740157
20
-2.0450118897637797
11
6.6899400393700788
21
-2.0422425196850393
0
LINE
8
BLACK
6
CONTINUOUS
10
6.6899400393700788
20
-2.0422425196850393
11
6.692910393700787
21
-2.0404753149606298
0
LINE
8
BLACK
6
CONTINUOUS
10
6.692910393700787
20
-2.0404753149606298
11
6.6963309842519685
21
-2.0399793700787403
0
LINE
8
BLACK
6
CONTINUOUS
10
6.6963309842519685
20
-2.0399793700787403
11
6.7159890551181105
21
-2.0410096062992125
  0
ENDSEC
  0
EOF
